<svg width="400" height="57" viewBox="0 0 400 57" fill="none" xmlns="http://www.w3.org/2000/svg">
<g filter="url(#filter0_d_151_340)">
<rect x="4.5" y="0.5" width="391" height="48" rx="24" fill="black" fill-opacity="0.2" stroke="black"/>
<mask id="path-2-outside-1_151_340" maskUnits="userSpaceOnUse" x="123" y="15" width="155" height="23" fill="black">
<rect fill="white" x="123" y="15" width="155" height="23"/>
<path d="M136.971 22.3622H134.315C134.239 21.9266 134.099 21.5407 133.896 21.2045C133.692 20.8636 133.439 20.5748 133.136 20.3381C132.833 20.1013 132.487 19.9238 132.099 19.8054C131.715 19.6823 131.301 19.6207 130.856 19.6207C130.065 19.6207 129.364 19.8196 128.754 20.2173C128.143 20.6103 127.665 21.188 127.319 21.9503C126.973 22.7079 126.8 23.6335 126.8 24.7273C126.8 25.84 126.973 26.7775 127.319 27.5398C127.669 28.2973 128.147 28.8703 128.754 29.2585C129.364 29.642 130.063 29.8338 130.849 29.8338C131.284 29.8338 131.692 29.777 132.07 29.6634C132.454 29.545 132.797 29.3722 133.1 29.1449C133.408 28.9176 133.666 28.6383 133.874 28.3068C134.087 27.9754 134.234 27.5966 134.315 27.1705L136.971 27.1847C136.871 27.8759 136.656 28.5246 136.325 29.1307C135.998 29.7367 135.569 30.2718 135.039 30.7358C134.509 31.1951 133.888 31.5549 133.178 31.8153C132.468 32.071 131.68 32.1989 130.813 32.1989C129.535 32.1989 128.394 31.9029 127.39 31.3111C126.386 30.7192 125.595 29.8646 125.018 28.7472C124.44 27.6297 124.151 26.2898 124.151 24.7273C124.151 23.16 124.442 21.8201 125.025 20.7074C125.607 19.59 126.4 18.7353 127.404 18.1435C128.408 17.5516 129.544 17.2557 130.813 17.2557C131.623 17.2557 132.376 17.3693 133.072 17.5966C133.768 17.8239 134.388 18.1577 134.933 18.598C135.477 19.0336 135.924 19.5687 136.275 20.2031C136.63 20.8329 136.862 21.5526 136.971 22.3622ZM139.27 32V21.0909H141.763V22.9091H141.877C142.076 22.2794 142.417 21.794 142.9 21.4531C143.387 21.1075 143.944 20.9347 144.569 20.9347C144.711 20.9347 144.869 20.9418 145.044 20.956C145.224 20.9654 145.373 20.982 145.492 21.0057V23.3707C145.383 23.3329 145.21 23.2997 144.973 23.2713C144.741 23.2382 144.516 23.2216 144.299 23.2216C143.83 23.2216 143.408 23.3234 143.034 23.527C142.665 23.7259 142.374 24.0028 142.161 24.358C141.948 24.7131 141.841 25.1226 141.841 25.5866V32H139.27ZM151.58 32.2131C150.487 32.2131 149.542 31.9858 148.746 31.5312C147.956 31.072 147.347 30.4233 146.921 29.5852C146.495 28.7424 146.282 27.7505 146.282 26.6094C146.282 25.4872 146.495 24.5024 146.921 23.6548C147.352 22.8026 147.953 22.1397 148.725 21.6662C149.497 21.188 150.404 20.9489 151.445 20.9489C152.118 20.9489 152.752 21.0578 153.349 21.2756C153.95 21.4886 154.48 21.8201 154.94 22.2699C155.404 22.7197 155.768 23.2926 156.033 23.9886C156.299 24.6799 156.431 25.5038 156.431 26.4602V27.2486H147.489V25.5156H153.967C153.962 25.0232 153.855 24.5852 153.647 24.2017C153.439 23.8134 153.147 23.508 152.773 23.2855C152.404 23.063 151.973 22.9517 151.481 22.9517C150.955 22.9517 150.494 23.0795 150.096 23.3352C149.698 23.5862 149.388 23.9176 149.165 24.3295C148.948 24.7367 148.836 25.1842 148.832 25.6719V27.1847C148.832 27.8191 148.948 28.3636 149.18 28.8182C149.412 29.268 149.736 29.6136 150.153 29.8551C150.569 30.0919 151.057 30.2102 151.616 30.2102C151.99 30.2102 152.328 30.1581 152.631 30.054C152.934 29.9451 153.197 29.7865 153.42 29.5781C153.642 29.3698 153.81 29.1117 153.924 28.804L156.325 29.0739C156.173 29.7083 155.884 30.2623 155.458 30.7358C155.037 31.2045 154.497 31.5691 153.839 31.8295C153.181 32.0852 152.428 32.2131 151.58 32.2131ZM150.387 19.6562L151.978 16.4105H154.492L152.312 19.6562H150.387ZM163.436 32.2131C162.342 32.2131 161.397 31.9858 160.602 31.5312C159.811 31.072 159.203 30.4233 158.777 29.5852C158.35 28.7424 158.137 27.7505 158.137 26.6094C158.137 25.4872 158.35 24.5024 158.777 23.6548C159.208 22.8026 159.809 22.1397 160.581 21.6662C161.352 21.188 162.259 20.9489 163.301 20.9489C163.973 20.9489 164.608 21.0578 165.204 21.2756C165.806 21.4886 166.336 21.8201 166.795 22.2699C167.259 22.7197 167.624 23.2926 167.889 23.9886C168.154 24.6799 168.287 25.5038 168.287 26.4602V27.2486H159.345V25.5156H165.822C165.817 25.0232 165.711 24.5852 165.502 24.2017C165.294 23.8134 165.003 23.508 164.629 23.2855C164.26 23.063 163.829 22.9517 163.336 22.9517C162.811 22.9517 162.349 23.0795 161.951 23.3352C161.554 23.5862 161.243 23.9176 161.021 24.3295C160.803 24.7367 160.692 25.1842 160.687 25.6719V27.1847C160.687 27.8191 160.803 28.3636 161.035 28.8182C161.267 29.268 161.592 29.6136 162.008 29.8551C162.425 30.0919 162.913 30.2102 163.471 30.2102C163.845 30.2102 164.184 30.1581 164.487 30.054C164.79 29.9451 165.053 29.7865 165.275 29.5781C165.498 29.3698 165.666 29.1117 165.779 28.804L168.18 29.0739C168.029 29.7083 167.74 30.2623 167.314 30.7358C166.892 31.2045 166.352 31.5691 165.694 31.8295C165.036 32.0852 164.283 32.2131 163.436 32.2131ZM182.376 27.4119V21.0909H184.947V32H182.454V30.0611H182.34C182.094 30.6719 181.689 31.1714 181.126 31.5597C180.567 31.9479 179.878 32.142 179.059 32.142C178.344 32.142 177.712 31.9834 177.163 31.6662C176.618 31.3442 176.192 30.8778 175.884 30.267C175.576 29.6515 175.423 28.9081 175.423 28.0369V21.0909H177.994V27.6392C177.994 28.3305 178.183 28.8797 178.562 29.2869C178.941 29.6941 179.438 29.8977 180.053 29.8977C180.432 29.8977 180.799 29.8054 181.154 29.6207C181.509 29.4361 181.8 29.1615 182.028 28.7969C182.26 28.4276 182.376 27.9659 182.376 27.4119ZM190.162 25.608V32H187.591V21.0909H190.048V22.9446H190.176C190.427 22.3338 190.827 21.8485 191.376 21.4886C191.93 21.1288 192.614 20.9489 193.429 20.9489C194.181 20.9489 194.837 21.1098 195.396 21.4318C195.959 21.7538 196.395 22.2202 196.703 22.831C197.015 23.4418 197.169 24.1828 197.164 25.054V32H194.593V25.4517C194.593 24.7225 194.404 24.152 194.025 23.7401C193.651 23.3281 193.133 23.1222 192.47 23.1222C192.02 23.1222 191.62 23.2216 191.27 23.4205C190.924 23.6146 190.652 23.8963 190.453 24.2656C190.259 24.6349 190.162 25.0824 190.162 25.608ZM209.498 32.2131C208.408 32.2131 207.473 31.974 206.692 31.4957C205.916 31.0175 205.317 30.357 204.895 29.5142C204.479 28.6667 204.27 27.6913 204.27 26.5881C204.27 25.4801 204.483 24.5024 204.909 23.6548C205.336 22.8026 205.937 22.1397 206.713 21.6662C207.495 21.188 208.418 20.9489 209.483 20.9489C210.369 20.9489 211.152 21.1122 211.834 21.4389C212.521 21.7609 213.068 22.2178 213.475 22.8097C213.882 23.3968 214.114 24.0833 214.171 24.8693H211.713C211.614 24.3437 211.377 23.9058 211.003 23.5554C210.634 23.2003 210.139 23.0227 209.519 23.0227C208.993 23.0227 208.532 23.1648 208.134 23.4489C207.736 23.7282 207.426 24.1307 207.203 24.6562C206.986 25.1818 206.877 25.8116 206.877 26.5455C206.877 27.2888 206.986 27.928 207.203 28.4631C207.421 28.9934 207.727 29.4029 208.12 29.6918C208.517 29.9759 208.984 30.1179 209.519 30.1179C209.898 30.1179 210.236 30.0469 210.534 29.9048C210.837 29.758 211.091 29.5473 211.294 29.2727C211.498 28.9981 211.638 28.6643 211.713 28.2713H214.171C214.109 29.0431 213.882 29.7273 213.489 30.3239C213.096 30.9157 212.561 31.3797 211.884 31.7159C211.207 32.0473 210.411 32.2131 209.498 32.2131ZM221.04 32.2131C219.975 32.2131 219.052 31.9787 218.271 31.5099C217.489 31.0412 216.883 30.3854 216.452 29.5426C216.026 28.6998 215.813 27.715 215.813 26.5881C215.813 25.4612 216.026 24.474 216.452 23.6264C216.883 22.7789 217.489 22.1207 218.271 21.652C219.052 21.1832 219.975 20.9489 221.04 20.9489C222.106 20.9489 223.029 21.1832 223.81 21.652C224.592 22.1207 225.195 22.7789 225.621 23.6264C226.052 24.474 226.268 25.4612 226.268 26.5881C226.268 27.715 226.052 28.6998 225.621 29.5426C225.195 30.3854 224.592 31.0412 223.81 31.5099C223.029 31.9787 222.106 32.2131 221.04 32.2131ZM221.055 30.1534C221.632 30.1534 222.115 29.9948 222.504 29.6776C222.892 29.3556 223.181 28.9247 223.37 28.3849C223.564 27.8452 223.661 27.2438 223.661 26.581C223.661 25.9134 223.564 25.3097 223.37 24.7699C223.181 24.2254 222.892 23.7921 222.504 23.4702C222.115 23.1482 221.632 22.9872 221.055 22.9872C220.463 22.9872 219.97 23.1482 219.577 23.4702C219.189 23.7921 218.898 24.2254 218.704 24.7699C218.514 25.3097 218.42 25.9134 218.42 26.581C218.42 27.2438 218.514 27.8452 218.704 28.3849C218.898 28.9247 219.189 29.3556 219.577 29.6776C219.97 29.9948 220.463 30.1534 221.055 30.1534ZM228.45 32V21.0909H230.907V22.9446H231.035C231.262 22.3196 231.639 21.8319 232.164 21.4815C232.69 21.1264 233.317 20.9489 234.047 20.9489C234.785 20.9489 235.408 21.1288 235.914 21.4886C236.426 21.8437 236.786 22.3291 236.994 22.9446H237.108C237.349 22.3385 237.756 21.8556 238.329 21.4957C238.907 21.1312 239.591 20.9489 240.382 20.9489C241.386 20.9489 242.205 21.2661 242.839 21.9006C243.474 22.535 243.791 23.4607 243.791 24.6776V32H241.213V25.0753C241.213 24.3982 241.033 23.9034 240.673 23.5909C240.313 23.2737 239.873 23.1151 239.352 23.1151C238.732 23.1151 238.246 23.3092 237.896 23.6974C237.55 24.081 237.377 24.5805 237.377 25.196V32H234.856V24.9688C234.856 24.4053 234.686 23.9555 234.345 23.6193C234.009 23.2831 233.568 23.1151 233.024 23.1151C232.654 23.1151 232.318 23.2098 232.015 23.3991C231.712 23.5838 231.471 23.8466 231.291 24.1875C231.111 24.5237 231.021 24.9167 231.021 25.3665V32H228.45ZM246.399 36.0909V21.0909H248.928V22.8949H249.077C249.209 22.6297 249.396 22.348 249.638 22.0497C249.879 21.7467 250.206 21.4886 250.618 21.2756C251.03 21.0578 251.555 20.9489 252.195 20.9489C253.037 20.9489 253.797 21.1643 254.474 21.5952C255.156 22.0213 255.696 22.6534 256.094 23.4915C256.496 24.3248 256.697 25.3475 256.697 26.5597C256.697 27.7576 256.501 28.7756 256.108 29.6136C255.715 30.4517 255.18 31.0909 254.503 31.5312C253.826 31.9716 253.059 32.1918 252.202 32.1918C251.577 32.1918 251.058 32.0876 250.646 31.8793C250.234 31.6709 249.903 31.42 249.652 31.1264C249.406 30.8281 249.214 30.5464 249.077 30.2812H248.97V36.0909H246.399ZM248.92 26.5455C248.92 27.2509 249.02 27.8688 249.219 28.3991C249.422 28.9295 249.714 29.3437 250.092 29.642C250.476 29.9356 250.94 30.0824 251.484 30.0824C252.053 30.0824 252.528 29.9309 252.912 29.6278C253.295 29.3201 253.584 28.901 253.778 28.3707C253.977 27.8357 254.077 27.2273 254.077 26.5455C254.077 25.8684 253.98 25.267 253.786 24.7415C253.591 24.2159 253.303 23.804 252.919 23.5057C252.536 23.2074 252.057 23.0582 251.484 23.0582C250.935 23.0582 250.469 23.2027 250.085 23.4915C249.702 23.7803 249.411 24.1851 249.212 24.706C249.018 25.2268 248.92 25.84 248.92 26.5455ZM264.347 21.0909V23.0795H258.075V21.0909H264.347ZM259.624 18.4773H262.195V28.7188C262.195 29.0644 262.247 29.3295 262.351 29.5142C262.46 29.6941 262.602 29.8172 262.777 29.8835C262.952 29.9498 263.146 29.983 263.359 29.983C263.52 29.983 263.667 29.9711 263.8 29.9474C263.937 29.9238 264.041 29.9025 264.112 29.8835L264.545 31.8935C264.408 31.9408 264.212 31.9929 263.956 32.0497C263.705 32.1065 263.397 32.1397 263.033 32.1491C262.389 32.1681 261.809 32.071 261.293 31.858C260.777 31.6402 260.367 31.304 260.064 30.8494C259.766 30.3949 259.619 29.8267 259.624 29.1449V18.4773ZM271.209 32.2131C270.115 32.2131 269.171 31.9858 268.375 31.5312C267.585 31.072 266.976 30.4233 266.55 29.5852C266.124 28.7424 265.911 27.7505 265.911 26.6094C265.911 25.4872 266.124 24.5024 266.55 23.6548C266.981 22.8026 267.582 22.1397 268.354 21.6662C269.126 21.188 270.033 20.9489 271.074 20.9489C271.747 20.9489 272.381 21.0578 272.978 21.2756C273.579 21.4886 274.109 21.8201 274.569 22.2699C275.033 22.7197 275.397 23.2926 275.662 23.9886C275.927 24.6799 276.06 25.5038 276.06 26.4602V27.2486H267.118V25.5156H273.596C273.591 25.0232 273.484 24.5852 273.276 24.2017C273.068 23.8134 272.776 23.508 272.402 23.2855C272.033 23.063 271.602 22.9517 271.11 22.9517C270.584 22.9517 270.123 23.0795 269.725 23.3352C269.327 23.5862 269.017 23.9176 268.794 24.3295C268.577 24.7367 268.465 25.1842 268.461 25.6719V27.1847C268.461 27.8191 268.577 28.3636 268.809 28.8182C269.041 29.268 269.365 29.6136 269.782 29.8551C270.198 30.0919 270.686 30.2102 271.245 30.2102C271.619 30.2102 271.957 30.1581 272.26 30.054C272.563 29.9451 272.826 29.7865 273.049 29.5781C273.271 29.3698 273.439 29.1117 273.553 28.804L275.953 29.0739C275.802 29.7083 275.513 30.2623 275.087 30.7358C274.666 31.2045 274.126 31.5691 273.468 31.8295C272.81 32.0852 272.057 32.2131 271.209 32.2131Z"/>
</mask>
<path d="M136.971 22.3622H134.315C134.239 21.9266 134.099 21.5407 133.896 21.2045C133.692 20.8636 133.439 20.5748 133.136 20.3381C132.833 20.1013 132.487 19.9238 132.099 19.8054C131.715 19.6823 131.301 19.6207 130.856 19.6207C130.065 19.6207 129.364 19.8196 128.754 20.2173C128.143 20.6103 127.665 21.188 127.319 21.9503C126.973 22.7079 126.8 23.6335 126.8 24.7273C126.8 25.84 126.973 26.7775 127.319 27.5398C127.669 28.2973 128.147 28.8703 128.754 29.2585C129.364 29.642 130.063 29.8338 130.849 29.8338C131.284 29.8338 131.692 29.777 132.07 29.6634C132.454 29.545 132.797 29.3722 133.1 29.1449C133.408 28.9176 133.666 28.6383 133.874 28.3068C134.087 27.9754 134.234 27.5966 134.315 27.1705L136.971 27.1847C136.871 27.8759 136.656 28.5246 136.325 29.1307C135.998 29.7367 135.569 30.2718 135.039 30.7358C134.509 31.1951 133.888 31.5549 133.178 31.8153C132.468 32.071 131.68 32.1989 130.813 32.1989C129.535 32.1989 128.394 31.9029 127.39 31.3111C126.386 30.7192 125.595 29.8646 125.018 28.7472C124.44 27.6297 124.151 26.2898 124.151 24.7273C124.151 23.16 124.442 21.8201 125.025 20.7074C125.607 19.59 126.4 18.7353 127.404 18.1435C128.408 17.5516 129.544 17.2557 130.813 17.2557C131.623 17.2557 132.376 17.3693 133.072 17.5966C133.768 17.8239 134.388 18.1577 134.933 18.598C135.477 19.0336 135.924 19.5687 136.275 20.2031C136.63 20.8329 136.862 21.5526 136.971 22.3622ZM139.27 32V21.0909H141.763V22.9091H141.877C142.076 22.2794 142.417 21.794 142.9 21.4531C143.387 21.1075 143.944 20.9347 144.569 20.9347C144.711 20.9347 144.869 20.9418 145.044 20.956C145.224 20.9654 145.373 20.982 145.492 21.0057V23.3707C145.383 23.3329 145.21 23.2997 144.973 23.2713C144.741 23.2382 144.516 23.2216 144.299 23.2216C143.83 23.2216 143.408 23.3234 143.034 23.527C142.665 23.7259 142.374 24.0028 142.161 24.358C141.948 24.7131 141.841 25.1226 141.841 25.5866V32H139.27ZM151.58 32.2131C150.487 32.2131 149.542 31.9858 148.746 31.5312C147.956 31.072 147.347 30.4233 146.921 29.5852C146.495 28.7424 146.282 27.7505 146.282 26.6094C146.282 25.4872 146.495 24.5024 146.921 23.6548C147.352 22.8026 147.953 22.1397 148.725 21.6662C149.497 21.188 150.404 20.9489 151.445 20.9489C152.118 20.9489 152.752 21.0578 153.349 21.2756C153.95 21.4886 154.48 21.8201 154.94 22.2699C155.404 22.7197 155.768 23.2926 156.033 23.9886C156.299 24.6799 156.431 25.5038 156.431 26.4602V27.2486H147.489V25.5156H153.967C153.962 25.0232 153.855 24.5852 153.647 24.2017C153.439 23.8134 153.147 23.508 152.773 23.2855C152.404 23.063 151.973 22.9517 151.481 22.9517C150.955 22.9517 150.494 23.0795 150.096 23.3352C149.698 23.5862 149.388 23.9176 149.165 24.3295C148.948 24.7367 148.836 25.1842 148.832 25.6719V27.1847C148.832 27.8191 148.948 28.3636 149.18 28.8182C149.412 29.268 149.736 29.6136 150.153 29.8551C150.569 30.0919 151.057 30.2102 151.616 30.2102C151.99 30.2102 152.328 30.1581 152.631 30.054C152.934 29.9451 153.197 29.7865 153.42 29.5781C153.642 29.3698 153.81 29.1117 153.924 28.804L156.325 29.0739C156.173 29.7083 155.884 30.2623 155.458 30.7358C155.037 31.2045 154.497 31.5691 153.839 31.8295C153.181 32.0852 152.428 32.2131 151.58 32.2131ZM150.387 19.6562L151.978 16.4105H154.492L152.312 19.6562H150.387ZM163.436 32.2131C162.342 32.2131 161.397 31.9858 160.602 31.5312C159.811 31.072 159.203 30.4233 158.777 29.5852C158.35 28.7424 158.137 27.7505 158.137 26.6094C158.137 25.4872 158.35 24.5024 158.777 23.6548C159.208 22.8026 159.809 22.1397 160.581 21.6662C161.352 21.188 162.259 20.9489 163.301 20.9489C163.973 20.9489 164.608 21.0578 165.204 21.2756C165.806 21.4886 166.336 21.8201 166.795 22.2699C167.259 22.7197 167.624 23.2926 167.889 23.9886C168.154 24.6799 168.287 25.5038 168.287 26.4602V27.2486H159.345V25.5156H165.822C165.817 25.0232 165.711 24.5852 165.502 24.2017C165.294 23.8134 165.003 23.508 164.629 23.2855C164.26 23.063 163.829 22.9517 163.336 22.9517C162.811 22.9517 162.349 23.0795 161.951 23.3352C161.554 23.5862 161.243 23.9176 161.021 24.3295C160.803 24.7367 160.692 25.1842 160.687 25.6719V27.1847C160.687 27.8191 160.803 28.3636 161.035 28.8182C161.267 29.268 161.592 29.6136 162.008 29.8551C162.425 30.0919 162.913 30.2102 163.471 30.2102C163.845 30.2102 164.184 30.1581 164.487 30.054C164.79 29.9451 165.053 29.7865 165.275 29.5781C165.498 29.3698 165.666 29.1117 165.779 28.804L168.18 29.0739C168.029 29.7083 167.74 30.2623 167.314 30.7358C166.892 31.2045 166.352 31.5691 165.694 31.8295C165.036 32.0852 164.283 32.2131 163.436 32.2131ZM182.376 27.4119V21.0909H184.947V32H182.454V30.0611H182.34C182.094 30.6719 181.689 31.1714 181.126 31.5597C180.567 31.9479 179.878 32.142 179.059 32.142C178.344 32.142 177.712 31.9834 177.163 31.6662C176.618 31.3442 176.192 30.8778 175.884 30.267C175.576 29.6515 175.423 28.9081 175.423 28.0369V21.0909H177.994V27.6392C177.994 28.3305 178.183 28.8797 178.562 29.2869C178.941 29.6941 179.438 29.8977 180.053 29.8977C180.432 29.8977 180.799 29.8054 181.154 29.6207C181.509 29.4361 181.8 29.1615 182.028 28.7969C182.26 28.4276 182.376 27.9659 182.376 27.4119ZM190.162 25.608V32H187.591V21.0909H190.048V22.9446H190.176C190.427 22.3338 190.827 21.8485 191.376 21.4886C191.93 21.1288 192.614 20.9489 193.429 20.9489C194.181 20.9489 194.837 21.1098 195.396 21.4318C195.959 21.7538 196.395 22.2202 196.703 22.831C197.015 23.4418 197.169 24.1828 197.164 25.054V32H194.593V25.4517C194.593 24.7225 194.404 24.152 194.025 23.7401C193.651 23.3281 193.133 23.1222 192.47 23.1222C192.02 23.1222 191.62 23.2216 191.27 23.4205C190.924 23.6146 190.652 23.8963 190.453 24.2656C190.259 24.6349 190.162 25.0824 190.162 25.608ZM209.498 32.2131C208.408 32.2131 207.473 31.974 206.692 31.4957C205.916 31.0175 205.317 30.357 204.895 29.5142C204.479 28.6667 204.27 27.6913 204.27 26.5881C204.27 25.4801 204.483 24.5024 204.909 23.6548C205.336 22.8026 205.937 22.1397 206.713 21.6662C207.495 21.188 208.418 20.9489 209.483 20.9489C210.369 20.9489 211.152 21.1122 211.834 21.4389C212.521 21.7609 213.068 22.2178 213.475 22.8097C213.882 23.3968 214.114 24.0833 214.171 24.8693H211.713C211.614 24.3437 211.377 23.9058 211.003 23.5554C210.634 23.2003 210.139 23.0227 209.519 23.0227C208.993 23.0227 208.532 23.1648 208.134 23.4489C207.736 23.7282 207.426 24.1307 207.203 24.6562C206.986 25.1818 206.877 25.8116 206.877 26.5455C206.877 27.2888 206.986 27.928 207.203 28.4631C207.421 28.9934 207.727 29.4029 208.12 29.6918C208.517 29.9759 208.984 30.1179 209.519 30.1179C209.898 30.1179 210.236 30.0469 210.534 29.9048C210.837 29.758 211.091 29.5473 211.294 29.2727C211.498 28.9981 211.638 28.6643 211.713 28.2713H214.171C214.109 29.0431 213.882 29.7273 213.489 30.3239C213.096 30.9157 212.561 31.3797 211.884 31.7159C211.207 32.0473 210.411 32.2131 209.498 32.2131ZM221.04 32.2131C219.975 32.2131 219.052 31.9787 218.271 31.5099C217.489 31.0412 216.883 30.3854 216.452 29.5426C216.026 28.6998 215.813 27.715 215.813 26.5881C215.813 25.4612 216.026 24.474 216.452 23.6264C216.883 22.7789 217.489 22.1207 218.271 21.652C219.052 21.1832 219.975 20.9489 221.04 20.9489C222.106 20.9489 223.029 21.1832 223.81 21.652C224.592 22.1207 225.195 22.7789 225.621 23.6264C226.052 24.474 226.268 25.4612 226.268 26.5881C226.268 27.715 226.052 28.6998 225.621 29.5426C225.195 30.3854 224.592 31.0412 223.81 31.5099C223.029 31.9787 222.106 32.2131 221.04 32.2131ZM221.055 30.1534C221.632 30.1534 222.115 29.9948 222.504 29.6776C222.892 29.3556 223.181 28.9247 223.37 28.3849C223.564 27.8452 223.661 27.2438 223.661 26.581C223.661 25.9134 223.564 25.3097 223.37 24.7699C223.181 24.2254 222.892 23.7921 222.504 23.4702C222.115 23.1482 221.632 22.9872 221.055 22.9872C220.463 22.9872 219.97 23.1482 219.577 23.4702C219.189 23.7921 218.898 24.2254 218.704 24.7699C218.514 25.3097 218.42 25.9134 218.42 26.581C218.42 27.2438 218.514 27.8452 218.704 28.3849C218.898 28.9247 219.189 29.3556 219.577 29.6776C219.97 29.9948 220.463 30.1534 221.055 30.1534ZM228.45 32V21.0909H230.907V22.9446H231.035C231.262 22.3196 231.639 21.8319 232.164 21.4815C232.69 21.1264 233.317 20.9489 234.047 20.9489C234.785 20.9489 235.408 21.1288 235.914 21.4886C236.426 21.8437 236.786 22.3291 236.994 22.9446H237.108C237.349 22.3385 237.756 21.8556 238.329 21.4957C238.907 21.1312 239.591 20.9489 240.382 20.9489C241.386 20.9489 242.205 21.2661 242.839 21.9006C243.474 22.535 243.791 23.4607 243.791 24.6776V32H241.213V25.0753C241.213 24.3982 241.033 23.9034 240.673 23.5909C240.313 23.2737 239.873 23.1151 239.352 23.1151C238.732 23.1151 238.246 23.3092 237.896 23.6974C237.55 24.081 237.377 24.5805 237.377 25.196V32H234.856V24.9688C234.856 24.4053 234.686 23.9555 234.345 23.6193C234.009 23.2831 233.568 23.1151 233.024 23.1151C232.654 23.1151 232.318 23.2098 232.015 23.3991C231.712 23.5838 231.471 23.8466 231.291 24.1875C231.111 24.5237 231.021 24.9167 231.021 25.3665V32H228.45ZM246.399 36.0909V21.0909H248.928V22.8949H249.077C249.209 22.6297 249.396 22.348 249.638 22.0497C249.879 21.7467 250.206 21.4886 250.618 21.2756C251.03 21.0578 251.555 20.9489 252.195 20.9489C253.037 20.9489 253.797 21.1643 254.474 21.5952C255.156 22.0213 255.696 22.6534 256.094 23.4915C256.496 24.3248 256.697 25.3475 256.697 26.5597C256.697 27.7576 256.501 28.7756 256.108 29.6136C255.715 30.4517 255.18 31.0909 254.503 31.5312C253.826 31.9716 253.059 32.1918 252.202 32.1918C251.577 32.1918 251.058 32.0876 250.646 31.8793C250.234 31.6709 249.903 31.42 249.652 31.1264C249.406 30.8281 249.214 30.5464 249.077 30.2812H248.97V36.0909H246.399ZM248.92 26.5455C248.92 27.2509 249.02 27.8688 249.219 28.3991C249.422 28.9295 249.714 29.3437 250.092 29.642C250.476 29.9356 250.94 30.0824 251.484 30.0824C252.053 30.0824 252.528 29.9309 252.912 29.6278C253.295 29.3201 253.584 28.901 253.778 28.3707C253.977 27.8357 254.077 27.2273 254.077 26.5455C254.077 25.8684 253.98 25.267 253.786 24.7415C253.591 24.2159 253.303 23.804 252.919 23.5057C252.536 23.2074 252.057 23.0582 251.484 23.0582C250.935 23.0582 250.469 23.2027 250.085 23.4915C249.702 23.7803 249.411 24.1851 249.212 24.706C249.018 25.2268 248.92 25.84 248.92 26.5455ZM264.347 21.0909V23.0795H258.075V21.0909H264.347ZM259.624 18.4773H262.195V28.7188C262.195 29.0644 262.247 29.3295 262.351 29.5142C262.46 29.6941 262.602 29.8172 262.777 29.8835C262.952 29.9498 263.146 29.983 263.359 29.983C263.52 29.983 263.667 29.9711 263.8 29.9474C263.937 29.9238 264.041 29.9025 264.112 29.8835L264.545 31.8935C264.408 31.9408 264.212 31.9929 263.956 32.0497C263.705 32.1065 263.397 32.1397 263.033 32.1491C262.389 32.1681 261.809 32.071 261.293 31.858C260.777 31.6402 260.367 31.304 260.064 30.8494C259.766 30.3949 259.619 29.8267 259.624 29.1449V18.4773ZM271.209 32.2131C270.115 32.2131 269.171 31.9858 268.375 31.5312C267.585 31.072 266.976 30.4233 266.55 29.5852C266.124 28.7424 265.911 27.7505 265.911 26.6094C265.911 25.4872 266.124 24.5024 266.55 23.6548C266.981 22.8026 267.582 22.1397 268.354 21.6662C269.126 21.188 270.033 20.9489 271.074 20.9489C271.747 20.9489 272.381 21.0578 272.978 21.2756C273.579 21.4886 274.109 21.8201 274.569 22.2699C275.033 22.7197 275.397 23.2926 275.662 23.9886C275.927 24.6799 276.06 25.5038 276.06 26.4602V27.2486H267.118V25.5156H273.596C273.591 25.0232 273.484 24.5852 273.276 24.2017C273.068 23.8134 272.776 23.508 272.402 23.2855C272.033 23.063 271.602 22.9517 271.11 22.9517C270.584 22.9517 270.123 23.0795 269.725 23.3352C269.327 23.5862 269.017 23.9176 268.794 24.3295C268.577 24.7367 268.465 25.1842 268.461 25.6719V27.1847C268.461 27.8191 268.577 28.3636 268.809 28.8182C269.041 29.268 269.365 29.6136 269.782 29.8551C270.198 30.0919 270.686 30.2102 271.245 30.2102C271.619 30.2102 271.957 30.1581 272.26 30.054C272.563 29.9451 272.826 29.7865 273.049 29.5781C273.271 29.3698 273.439 29.1117 273.553 28.804L275.953 29.0739C275.802 29.7083 275.513 30.2623 275.087 30.7358C274.666 31.2045 274.126 31.5691 273.468 31.8295C272.81 32.0852 272.057 32.2131 271.209 32.2131Z" fill="white"/>
<path d="M136.971 22.3622V23.3622H138.114L137.962 22.2289L136.971 22.3622ZM134.315 22.3622L133.329 22.5336L133.474 23.3622H134.315V22.3622ZM133.896 21.2045L133.037 21.7173L133.04 21.7226L133.896 21.2045ZM133.136 20.3381L133.751 19.55L133.751 19.55L133.136 20.3381ZM132.099 19.8054L131.793 20.7575L131.8 20.7598L131.807 20.7619L132.099 19.8054ZM128.754 20.2173L129.295 21.0583L129.299 21.0553L128.754 20.2173ZM127.319 21.9503L128.229 22.3654L128.23 22.3632L127.319 21.9503ZM127.319 27.5398L126.408 27.9527L126.411 27.9595L127.319 27.5398ZM128.754 29.2585L128.214 30.1006L128.222 30.1054L128.754 29.2585ZM132.07 29.6634L132.358 30.6212L132.365 30.6189L132.07 29.6634ZM133.1 29.1449L132.506 28.3404L132.5 28.3449L133.1 29.1449ZM133.874 28.3068L133.033 27.766L133.028 27.7746L133.874 28.3068ZM134.315 27.1705L134.32 26.1705L133.487 26.166L133.332 26.9848L134.315 27.1705ZM136.971 27.1847L137.961 27.327L138.124 26.1908L136.976 26.1847L136.971 27.1847ZM136.325 29.1307L135.447 28.6509L135.444 28.6562L136.325 29.1307ZM135.039 30.7358L135.694 31.4917L135.698 31.4884L135.039 30.7358ZM133.178 31.8153L133.517 32.7562L133.523 32.7542L133.178 31.8153ZM127.39 31.3111L127.898 30.4497L127.898 30.4497L127.39 31.3111ZM125.018 28.7472L124.129 29.2064L124.129 29.2064L125.018 28.7472ZM125.025 20.7074L125.911 21.1711L125.912 21.1696L125.025 20.7074ZM127.404 18.1435L126.896 17.2821L126.896 17.2821L127.404 18.1435ZM133.072 17.5966L133.382 16.646L133.382 16.646L133.072 17.5966ZM134.933 18.598L134.304 19.3756L134.308 19.3789L134.933 18.598ZM136.275 20.2031L135.399 20.6866L135.404 20.6943L136.275 20.2031ZM136.971 21.3622H134.315V23.3622H136.971V21.3622ZM135.3 22.1909C135.205 21.6479 135.027 21.1416 134.751 20.6865L133.04 21.7226C133.172 21.9398 133.272 22.2053 133.329 22.5336L135.3 22.1909ZM134.754 20.6918C134.489 20.2484 134.155 19.8653 133.751 19.55L132.52 21.1261C132.723 21.2844 132.895 21.4788 133.037 21.7173L134.754 20.6918ZM133.751 19.55C133.346 19.2336 132.889 19.001 132.39 18.8489L131.807 20.7619C132.085 20.8465 132.319 20.9691 132.52 21.1261L133.751 19.55ZM132.404 18.8532C131.912 18.6953 131.394 18.6207 130.856 18.6207V20.6207C131.208 20.6207 131.518 20.6693 131.793 20.7575L132.404 18.8532ZM130.856 18.6207C129.889 18.6207 128.995 18.8669 128.208 19.3793L129.299 21.0553C129.734 20.7723 130.242 20.6207 130.856 20.6207V18.6207ZM128.212 19.3764C127.416 19.8886 126.821 20.6271 126.408 21.5373L128.23 22.3632C128.508 21.7488 128.869 21.332 129.295 21.0583L128.212 19.3764ZM126.409 21.5352C125.988 22.4571 125.8 23.5332 125.8 24.7273H127.8C127.8 23.7339 127.958 22.9586 128.229 22.3654L126.409 21.5352ZM125.8 24.7273C125.8 25.9378 125.988 27.0254 126.408 27.9527L128.23 27.1268C127.959 26.5295 127.8 25.7421 127.8 24.7273H125.8ZM126.411 27.9595C126.829 28.8619 127.423 29.5939 128.214 30.1006L129.293 28.4165C128.872 28.1466 128.51 27.7328 128.227 27.12L126.411 27.9595ZM128.222 30.1054C129.006 30.5979 129.892 30.8338 130.849 30.8338V28.8338C130.233 28.8338 129.723 28.6862 129.285 28.4116L128.222 30.1054ZM130.849 30.8338C131.372 30.8338 131.877 30.7655 132.358 30.6212L131.783 28.7055C131.506 28.7885 131.197 28.8338 130.849 28.8338V30.8338ZM132.365 30.6189C132.852 30.4686 133.3 30.2452 133.7 29.9449L132.5 28.3449C132.294 28.4991 132.056 28.6213 131.775 28.7078L132.365 30.6189ZM133.694 29.9493C134.105 29.6461 134.448 29.2737 134.721 28.839L133.028 27.7746C132.884 28.0029 132.711 28.1891 132.506 28.3405L133.694 29.9493ZM134.715 28.8476C135.005 28.3975 135.195 27.8958 135.297 27.3561L133.332 26.9848C133.273 27.2974 133.17 27.5532 133.033 27.7661L134.715 28.8476ZM134.309 28.1704L136.966 28.1846L136.976 26.1847L134.32 26.1705L134.309 28.1704ZM135.981 27.0423C135.898 27.6166 135.721 28.1508 135.447 28.6509L137.202 29.6105C137.591 28.8984 137.844 28.1353 137.961 27.327L135.981 27.0423ZM135.444 28.6562C135.176 29.1546 134.823 29.596 134.381 29.9832L135.698 31.4884C136.316 30.9475 136.82 30.3189 137.205 29.6052L135.444 28.6562ZM134.384 29.9799C133.953 30.3539 133.439 30.6545 132.834 30.8765L133.523 32.7542C134.338 32.4554 135.065 32.0363 135.694 31.4917L134.384 29.9799ZM132.84 30.8745C132.253 31.0857 131.581 31.1989 130.813 31.1989V33.1989C131.778 33.1989 132.683 33.0563 133.517 32.7562L132.84 30.8745ZM130.813 31.1989C129.696 31.1989 128.733 30.9421 127.898 30.4497L126.882 32.1725C128.054 32.8637 129.374 33.1989 130.813 33.1989V31.1989ZM127.898 30.4497C127.069 29.961 126.404 29.252 125.906 28.2879L124.129 29.2064C124.786 30.4772 125.703 31.4774 126.882 32.1725L127.898 30.4497ZM125.906 28.2879C125.417 27.3427 125.151 26.1679 125.151 24.7273H123.151C123.151 26.4116 123.463 27.9167 124.129 29.2064L125.906 28.2879ZM125.151 24.7273C125.151 23.2823 125.42 22.1095 125.911 21.1711L124.139 20.2437C123.465 21.5306 123.151 23.0378 123.151 24.7273H125.151ZM125.912 21.1696C126.415 20.204 127.082 19.494 127.912 19.0049L126.896 17.2821C125.718 17.9767 124.8 18.9759 124.138 20.2452L125.912 21.1696ZM127.912 19.0049C128.748 18.5117 129.707 18.2557 130.813 18.2557V16.2557C129.382 16.2557 128.067 16.5915 126.896 17.2821L127.912 19.0049ZM130.813 18.2557C131.529 18.2557 132.176 18.3559 132.761 18.5472L133.382 16.646C132.576 16.3827 131.717 16.2557 130.813 16.2557V18.2557ZM132.761 18.5472C133.347 18.7384 133.858 19.0153 134.304 19.3756L135.561 17.8205C134.918 17.3001 134.189 16.9093 133.382 16.646L132.761 18.5472ZM134.308 19.3789C134.746 19.7295 135.11 20.1621 135.399 20.6865L137.15 19.7197C136.739 18.9752 136.208 18.3378 135.557 17.8171L134.308 19.3789ZM135.404 20.6943C135.689 21.2 135.886 21.7954 135.98 22.4955L137.962 22.2289C137.838 21.3097 137.571 20.4657 137.146 19.7119L135.404 20.6943ZM139.27 32H138.27V33H139.27V32ZM139.27 21.0909V20.0909H138.27V21.0909H139.27ZM141.763 21.0909H142.763V20.0909H141.763V21.0909ZM141.763 22.9091H140.763V23.9091H141.763V22.9091ZM141.877 22.9091V23.9091H142.61L142.83 23.2102L141.877 22.9091ZM142.9 21.4531L143.476 22.2701L143.478 22.269L142.9 21.4531ZM145.044 20.956L144.964 21.9527L144.978 21.9538L144.992 21.9546L145.044 20.956ZM145.492 21.0057H146.492V20.1859L145.688 20.0251L145.492 21.0057ZM145.492 23.3707L145.163 24.3152L146.492 24.7773V23.3707H145.492ZM144.973 23.2713L144.832 24.2613L144.843 24.2628L144.854 24.2642L144.973 23.2713ZM143.034 23.527L143.509 24.4075L143.513 24.4053L143.034 23.527ZM141.841 32V33H142.841V32H141.841ZM140.27 32V21.0909H138.27V32H140.27ZM139.27 22.0909H141.763V20.0909H139.27V22.0909ZM140.763 21.0909V22.9091H142.763V21.0909H140.763ZM141.763 23.9091H141.877V21.9091H141.763V23.9091ZM142.83 23.2102C142.971 22.7633 143.193 22.4702 143.476 22.2701L142.323 20.6362C141.64 21.1179 141.18 21.7954 140.923 22.608L142.83 23.2102ZM143.478 22.269C143.788 22.0488 144.141 21.9347 144.569 21.9347V19.9347C143.746 19.9347 142.986 20.1661 142.321 20.6373L143.478 22.269ZM144.569 21.9347C144.678 21.9347 144.809 21.9402 144.964 21.9527L145.125 19.9592C144.929 19.9433 144.743 19.9347 144.569 19.9347V21.9347ZM144.992 21.9546C145.145 21.9626 145.242 21.9754 145.296 21.9863L145.688 20.0251C145.505 19.9886 145.304 19.9682 145.097 19.9573L144.992 21.9546ZM144.492 21.0057V23.3707H146.492V21.0057H144.492ZM145.82 22.4262C145.604 22.3511 145.342 22.3083 145.093 22.2784L144.854 24.2642C144.957 24.2765 145.035 24.2886 145.092 24.2996C145.153 24.3112 145.172 24.3182 145.163 24.3152L145.82 22.4262ZM145.115 22.2814C144.839 22.242 144.567 22.2216 144.299 22.2216V24.2216C144.466 24.2216 144.643 24.2343 144.832 24.2613L145.115 22.2814ZM144.299 22.2216C143.68 22.2216 143.092 22.3574 142.556 22.6487L143.513 24.4053C143.725 24.2894 143.98 24.2216 144.299 24.2216V22.2216ZM142.56 22.6465C142.035 22.9295 141.61 23.332 141.303 23.8435L143.018 24.8724C143.138 24.6737 143.295 24.5222 143.509 24.4075L142.56 22.6465ZM141.303 23.8435C140.986 24.3721 140.841 24.9638 140.841 25.5866H142.841C142.841 25.2815 142.909 25.054 143.018 24.8724L141.303 23.8435ZM140.841 25.5866V32H142.841V25.5866H140.841ZM141.841 31H139.27V33H141.841V31ZM148.746 31.5312L148.244 32.396L148.25 32.3995L148.746 31.5312ZM146.921 29.5852L146.029 30.0364L146.03 30.0385L146.921 29.5852ZM146.921 23.6548L146.029 23.2037L146.028 23.2056L146.921 23.6548ZM148.725 21.6662L149.248 22.5186L149.252 22.5162L148.725 21.6662ZM153.349 21.2756L153.006 22.215L153.015 22.2181L153.349 21.2756ZM154.94 22.2699L154.24 22.9843L154.244 22.9879L154.94 22.2699ZM156.033 23.9886L155.099 24.3446L155.1 24.3468L156.033 23.9886ZM156.431 27.2486V28.2486H157.431V27.2486H156.431ZM147.489 27.2486H146.489V28.2486H147.489V27.2486ZM147.489 25.5156V24.5156H146.489V25.5156H147.489ZM153.967 25.5156V26.5156H154.976L154.967 25.506L153.967 25.5156ZM153.647 24.2017L152.766 24.6745L152.768 24.679L153.647 24.2017ZM152.773 23.2855L152.257 24.142L152.262 24.1449L152.773 23.2855ZM150.096 23.3352L150.63 24.181L150.637 24.1764L150.096 23.3352ZM149.165 24.3295L148.286 23.8542L148.284 23.8579L149.165 24.3295ZM148.832 25.6719L147.832 25.6622V25.6719H148.832ZM149.18 28.8182L148.289 29.2728L148.291 29.2766L149.18 28.8182ZM150.153 29.8551L149.651 30.7203L149.659 30.7246L150.153 29.8551ZM152.631 30.054L152.957 30.9998L152.97 30.9951L152.631 30.054ZM153.42 29.5781L152.736 28.8481L153.42 29.5781ZM153.924 28.804L154.036 27.8102L153.257 27.7227L152.986 28.4576L153.924 28.804ZM156.325 29.0739L157.297 29.3061L157.56 28.2064L156.436 28.0801L156.325 29.0739ZM155.458 30.7358L154.715 30.0668L154.714 30.0672L155.458 30.7358ZM153.839 31.8295L154.201 32.7617L154.207 32.7594L153.839 31.8295ZM150.387 19.6562L149.489 19.2161L148.783 20.6562H150.387V19.6562ZM151.978 16.4105V15.4105H151.354L151.08 15.9704L151.978 16.4105ZM154.492 16.4105L155.322 16.9681L156.369 15.4105H154.492V16.4105ZM152.312 19.6562V20.6562H152.845L153.142 20.2139L152.312 19.6562ZM151.58 31.2131C150.627 31.2131 149.86 31.0159 149.243 30.663L148.25 32.3995C149.224 32.9557 150.346 33.2131 151.58 33.2131V31.2131ZM149.249 30.6665C148.63 30.3069 148.154 29.8034 147.813 29.132L146.03 30.0385C146.541 31.0432 147.282 31.837 148.244 32.396L149.249 30.6665ZM147.814 29.134C147.471 28.4573 147.282 27.626 147.282 26.6094H145.282C145.282 27.875 145.519 29.0275 146.029 30.0364L147.814 29.134ZM147.282 26.6094C147.282 25.6148 147.47 24.7889 147.815 24.104L146.028 23.2056C145.52 24.2158 145.282 25.3596 145.282 26.6094H147.282ZM147.814 24.106C148.166 23.4097 148.643 22.8897 149.248 22.5186L148.202 20.8138C147.264 21.3896 146.538 22.1955 146.029 23.2037L147.814 24.106ZM149.252 22.5162C149.843 22.1498 150.562 21.9489 151.445 21.9489V19.9489C150.246 19.9489 149.151 20.2261 148.198 20.8161L149.252 22.5162ZM151.445 21.9489C152.008 21.9489 152.525 22.0395 153.006 22.2149L153.692 20.3362C152.979 20.076 152.228 19.9489 151.445 19.9489V21.9489ZM153.015 22.2181C153.478 22.3823 153.884 22.6354 154.24 22.9843L155.639 21.5555C155.077 21.0047 154.422 20.595 153.683 20.333L153.015 22.2181ZM154.244 22.9879C154.588 23.3215 154.878 23.7645 155.099 24.3446L156.968 23.6326C156.659 22.8208 156.22 22.1179 155.636 21.5519L154.244 22.9879ZM155.1 24.3468C155.31 24.8958 155.431 25.5922 155.431 26.4602H157.431C157.431 25.4154 157.287 24.4641 156.967 23.6305L155.1 24.3468ZM155.431 26.4602V27.2486H157.431V26.4602H155.431ZM156.431 26.2486H147.489V28.2486H156.431V26.2486ZM148.489 27.2486V25.5156H146.489V27.2486H148.489ZM147.489 26.5156H153.967V24.5156H147.489V26.5156ZM154.967 25.506C154.96 24.8714 154.822 24.2691 154.526 23.7244L152.768 24.679C152.889 24.9013 152.963 25.175 152.967 25.5252L154.967 25.506ZM154.528 23.7289C154.235 23.1826 153.817 22.7427 153.285 22.4261L152.262 24.1449C152.478 24.2734 152.642 24.4442 152.766 24.6745L154.528 23.7289ZM153.29 22.429C152.743 22.0999 152.129 21.9517 151.481 21.9517V23.9517C151.818 23.9517 152.065 24.0261 152.257 24.142L153.29 22.429ZM151.481 21.9517C150.786 21.9517 150.132 22.1233 149.555 22.494L150.637 24.1764C150.855 24.0358 151.125 23.9517 151.481 23.9517V21.9517ZM149.562 22.4895C149.02 22.8317 148.59 23.2904 148.286 23.8542L150.045 24.8049C150.186 24.5448 150.376 24.3406 150.629 24.181L149.562 22.4895ZM148.284 23.8579C147.986 24.4153 147.838 25.0225 147.832 25.6622L149.832 25.6816C149.835 25.3458 149.91 25.0582 150.047 24.8012L148.284 23.8579ZM147.832 25.6719V27.1847H149.832V25.6719H147.832ZM147.832 27.1847C147.832 27.9395 147.97 28.6474 148.289 29.2728L150.07 28.3636C149.926 28.0799 149.832 27.6988 149.832 27.1847H147.832ZM148.291 29.2766C148.606 29.8871 149.061 30.378 149.651 30.7203L150.654 28.9899C150.411 28.8492 150.218 28.6489 150.068 28.3598L148.291 29.2766ZM149.659 30.7246C150.249 31.0601 150.913 31.2102 151.616 31.2102V29.2102C151.201 29.2102 150.889 29.1236 150.647 28.9857L149.659 30.7246ZM151.616 31.2102C152.082 31.2102 152.533 31.1452 152.956 30.9997L152.306 29.1083C152.124 29.171 151.897 29.2102 151.616 29.2102V31.2102ZM152.97 30.9951C153.394 30.8427 153.776 30.6148 154.103 30.3081L152.736 28.8481C152.619 28.9581 152.475 29.0475 152.293 29.1129L152.97 30.9951ZM154.103 30.3081C154.448 29.9855 154.699 29.5927 154.862 29.1504L152.986 28.4576C152.922 28.6308 152.837 28.7541 152.736 28.8481L154.103 30.3081ZM153.812 29.7977L156.213 30.0676L156.436 28.0801L154.036 27.8102L153.812 29.7977ZM155.352 28.8416C155.238 29.3177 155.026 29.7205 154.715 30.0668L156.201 31.4048C156.742 30.8041 157.108 30.099 157.297 29.3061L155.352 28.8416ZM154.714 30.0672C154.408 30.4076 154.003 30.6891 153.471 30.8997L154.207 32.7594C154.991 32.4492 155.665 32.0015 156.202 31.4043L154.714 30.0672ZM153.477 30.8974C152.955 31.1002 152.328 31.2131 151.58 31.2131V33.2131C152.527 33.2131 153.407 33.0702 154.201 32.7617L153.477 30.8974ZM151.285 20.0964L152.876 16.8506L151.08 15.9704L149.489 19.2161L151.285 20.0964ZM151.978 17.4105H154.492V15.4105H151.978V17.4105ZM153.662 15.8529L151.482 19.0986L153.142 20.2139L155.322 16.9681L153.662 15.8529ZM152.312 18.6562H150.387V20.6562H152.312V18.6562ZM160.602 31.5312L160.1 32.396L160.106 32.3995L160.602 31.5312ZM158.777 29.5852L157.884 30.0364L157.885 30.0385L158.777 29.5852ZM158.777 23.6548L157.884 23.2037L157.883 23.2056L158.777 23.6548ZM160.581 21.6662L161.104 22.5186L161.107 22.5162L160.581 21.6662ZM165.204 21.2756L164.861 22.215L164.87 22.2181L165.204 21.2756ZM166.795 22.2699L166.095 22.9843L166.099 22.9879L166.795 22.2699ZM167.889 23.9886L166.954 24.3446L166.955 24.3468L167.889 23.9886ZM168.287 27.2486V28.2486H169.287V27.2486H168.287ZM159.345 27.2486H158.345V28.2486H159.345V27.2486ZM159.345 25.5156V24.5156H158.345V25.5156H159.345ZM165.822 25.5156V26.5156H166.832L166.822 25.506L165.822 25.5156ZM165.502 24.2017L164.621 24.6745L164.624 24.679L165.502 24.2017ZM164.629 23.2855L164.113 24.142L164.118 24.1449L164.629 23.2855ZM161.951 23.3352L162.485 24.181L162.492 24.1764L161.951 23.3352ZM161.021 24.3295L160.141 23.8542L160.139 23.8579L161.021 24.3295ZM160.687 25.6719L159.687 25.6622V25.6719H160.687ZM161.035 28.8182L160.144 29.2728L160.146 29.2766L161.035 28.8182ZM162.008 29.8551L161.507 30.7203L161.514 30.7246L162.008 29.8551ZM164.487 30.054L164.812 30.9998L164.825 30.9951L164.487 30.054ZM165.275 29.5781L164.592 28.8481L165.275 29.5781ZM165.779 28.804L165.891 27.8102L165.113 27.7227L164.841 28.4576L165.779 28.804ZM168.18 29.0739L169.153 29.3061L169.415 28.2064L168.292 28.0801L168.18 29.0739ZM167.314 30.7358L166.57 30.0668L166.57 30.0672L167.314 30.7358ZM165.694 31.8295L166.056 32.7617L166.062 32.7594L165.694 31.8295ZM163.436 31.2131C162.482 31.2131 161.716 31.0159 161.098 30.663L160.106 32.3995C161.079 32.9557 162.202 33.2131 163.436 33.2131V31.2131ZM161.104 30.6665C160.485 30.3069 160.009 29.8034 159.668 29.132L157.885 30.0385C158.396 31.0432 159.137 31.837 160.1 32.396L161.104 30.6665ZM159.669 29.134C159.327 28.4573 159.137 27.626 159.137 26.6094H157.137C157.137 27.875 157.374 29.0275 157.884 30.0364L159.669 29.134ZM159.137 26.6094C159.137 25.6148 159.326 24.7889 159.67 24.104L157.883 23.2056C157.375 24.2158 157.137 25.3596 157.137 26.6094H159.137ZM159.669 24.106C160.021 23.4097 160.499 22.8897 161.104 22.5186L160.058 20.8138C159.119 21.3896 158.394 22.1955 157.884 23.2037L159.669 24.106ZM161.107 22.5162C161.699 22.1498 162.417 21.9489 163.301 21.9489V19.9489C162.101 19.9489 161.006 20.2261 160.054 20.8161L161.107 22.5162ZM163.301 21.9489C163.863 21.9489 164.381 22.0395 164.861 22.2149L165.547 20.3362C164.834 20.076 164.083 19.9489 163.301 19.9489V21.9489ZM164.87 22.2181C165.333 22.3823 165.739 22.6354 166.095 22.9843L167.495 21.5555C166.932 21.0047 166.278 20.595 165.538 20.333L164.87 22.2181ZM166.099 22.9879C166.443 23.3215 166.733 23.7645 166.954 24.3446L168.823 23.6326C168.514 22.8208 168.075 22.1179 167.491 21.5519L166.099 22.9879ZM166.955 24.3468C167.166 24.8958 167.287 25.5922 167.287 26.4602H169.287C169.287 25.4154 169.142 24.4641 168.823 23.6305L166.955 24.3468ZM167.287 26.4602V27.2486H169.287V26.4602H167.287ZM168.287 26.2486H159.345V28.2486H168.287V26.2486ZM160.345 27.2486V25.5156H158.345V27.2486H160.345ZM159.345 26.5156H165.822V24.5156H159.345V26.5156ZM166.822 25.506C166.816 24.8714 166.677 24.2691 166.381 23.7244L164.624 24.679C164.745 24.9013 164.819 25.175 164.822 25.5252L166.822 25.506ZM166.384 23.7289C166.091 23.1826 165.672 22.7427 165.14 22.4261L164.118 24.1449C164.334 24.2734 164.498 24.4442 164.621 24.6745L166.384 23.7289ZM165.145 22.429C164.599 22.0999 163.984 21.9517 163.336 21.9517V23.9517C163.673 23.9517 163.92 24.0261 164.113 24.142L165.145 22.429ZM163.336 21.9517C162.641 21.9517 161.987 22.1233 161.411 22.494L162.492 24.1764C162.711 24.0358 162.98 23.9517 163.336 23.9517V21.9517ZM161.418 22.4895C160.875 22.8317 160.446 23.2904 160.141 23.8542L161.901 24.8049C162.041 24.5448 162.232 24.3406 162.485 24.181L161.418 22.4895ZM160.139 23.8579C159.841 24.4153 159.693 25.0225 159.687 25.6622L161.687 25.6816C161.69 25.3458 161.765 25.0582 161.903 24.8012L160.139 23.8579ZM159.687 25.6719V27.1847H161.687V25.6719H159.687ZM159.687 27.1847C159.687 27.9395 159.825 28.6474 160.144 29.2728L161.926 28.3636C161.781 28.0799 161.687 27.6988 161.687 27.1847H159.687ZM160.146 29.2766C160.461 29.8871 160.916 30.378 161.507 30.7203L162.51 28.9899C162.267 28.8492 162.073 28.6489 161.924 28.3598L160.146 29.2766ZM161.514 30.7246C162.105 31.0601 162.768 31.2102 163.471 31.2102V29.2102C163.057 29.2102 162.745 29.1236 162.502 28.9857L161.514 30.7246ZM163.471 31.2102C163.938 31.2102 164.388 31.1452 164.812 30.9997L164.162 29.1083C163.979 29.171 163.753 29.2102 163.471 29.2102V31.2102ZM164.825 30.9951C165.249 30.8427 165.631 30.6148 165.959 30.3081L164.592 28.8481C164.474 28.9581 164.331 29.0475 164.149 29.1129L164.825 30.9951ZM165.959 30.3081C166.303 29.9855 166.554 29.5927 166.718 29.1504L164.841 28.4576C164.777 28.6308 164.692 28.7541 164.592 28.8481L165.959 30.3081ZM165.668 29.7977L168.068 30.0676L168.292 28.0801L165.891 27.8102L165.668 29.7977ZM167.207 28.8416C167.094 29.3177 166.882 29.7205 166.57 30.0668L168.057 31.4048C168.597 30.8041 168.963 30.099 169.153 29.3061L167.207 28.8416ZM166.57 30.0672C166.264 30.4076 165.859 30.6891 165.326 30.8997L166.062 32.7594C166.846 32.4492 167.52 32.0015 168.057 31.4043L166.57 30.0672ZM165.332 30.8974C164.81 31.1002 164.184 31.2131 163.436 31.2131V33.2131C164.383 33.2131 165.262 33.0702 166.056 32.7617L165.332 30.8974ZM182.376 21.0909V20.0909H181.376V21.0909H182.376ZM184.947 21.0909H185.947V20.0909H184.947V21.0909ZM184.947 32V33H185.947V32H184.947ZM182.454 32H181.454V33H182.454V32ZM182.454 30.0611H183.454V29.0611H182.454V30.0611ZM182.34 30.0611V29.0611H181.665L181.413 29.6872L182.34 30.0611ZM181.126 31.5597L180.558 30.7362L180.555 30.7385L181.126 31.5597ZM177.163 31.6662L176.654 32.527L176.662 32.5321L177.163 31.6662ZM175.884 30.267L174.99 30.7143L174.991 30.717L175.884 30.267ZM175.423 21.0909V20.0909H174.423V21.0909H175.423ZM177.994 21.0909H178.994V20.0909H177.994V21.0909ZM178.562 29.2869L177.83 29.968L177.83 29.968L178.562 29.2869ZM181.154 29.6207L180.693 28.7335L180.693 28.7335L181.154 29.6207ZM182.028 28.7969L181.181 28.2649L181.179 28.2679L182.028 28.7969ZM183.376 27.4119V21.0909H181.376V27.4119H183.376ZM182.376 22.0909H184.947V20.0909H182.376V22.0909ZM183.947 21.0909V32H185.947V21.0909H183.947ZM184.947 31H182.454V33H184.947V31ZM183.454 32V30.0611H181.454V32H183.454ZM182.454 29.0611H182.34V31.0611H182.454V29.0611ZM181.413 29.6872C181.243 30.1087 180.967 30.4547 180.558 30.7362L181.693 32.3831C182.411 31.8881 182.945 31.235 183.268 30.4349L181.413 29.6872ZM180.555 30.7385C180.196 30.9883 179.716 31.142 179.059 31.142V33.142C180.04 33.142 180.938 32.9076 181.696 32.3808L180.555 30.7385ZM179.059 31.142C178.497 31.142 178.041 31.0189 177.663 30.8003L176.662 32.5321C177.382 32.9479 178.191 33.142 179.059 33.142V31.142ZM177.672 30.8054C177.305 30.5887 177.006 30.2715 176.777 29.8171L174.991 30.717C175.378 31.4842 175.931 32.0997 176.654 32.527L177.672 30.8054ZM176.779 29.8198C176.556 29.3751 176.423 28.7931 176.423 28.0369H174.423C174.423 29.0232 174.597 29.9279 174.99 30.7143L176.779 29.8198ZM176.423 28.0369V21.0909H174.423V28.0369H176.423ZM175.423 22.0909H177.994V20.0909H175.423V22.0909ZM176.994 21.0909V27.6392H178.994V21.0909H176.994ZM176.994 27.6392C176.994 28.5189 177.239 29.3336 177.83 29.968L179.294 28.6058C179.127 28.4259 178.994 28.1421 178.994 27.6392H176.994ZM177.83 29.968C178.419 30.6015 179.193 30.8977 180.053 30.8977V28.8977C179.683 28.8977 179.462 28.7867 179.294 28.6058L177.83 29.968ZM180.053 30.8977C180.602 30.8977 181.126 30.7624 181.615 30.508L180.693 28.7335C180.472 28.8484 180.262 28.8977 180.053 28.8977V30.8977ZM181.615 30.508C182.141 30.2346 182.562 29.8308 182.876 29.3259L181.179 28.2679C181.039 28.4921 180.877 28.6375 180.693 28.7335L181.615 30.508ZM182.874 29.3288C183.23 28.7623 183.376 28.1037 183.376 27.4119H181.376C181.376 27.8281 181.289 28.0928 181.181 28.2649L182.874 29.3288ZM190.162 32V33H191.162V32H190.162ZM187.591 32H186.591V33H187.591V32ZM187.591 21.0909V20.0909H186.591V21.0909H187.591ZM190.048 21.0909H191.048V20.0909H190.048V21.0909ZM190.048 22.9446H189.048V23.9446H190.048V22.9446ZM190.176 22.9446V23.9446H190.846L191.101 23.3246L190.176 22.9446ZM191.376 21.4886L190.831 20.65L190.828 20.6522L191.376 21.4886ZM195.396 21.4318L194.897 22.2983L194.9 22.3001L195.396 21.4318ZM196.703 22.831L195.81 23.281L195.813 23.2864L196.703 22.831ZM197.164 25.054L196.164 25.0485V25.054H197.164ZM197.164 32V33H198.164V32H197.164ZM194.593 32H193.593V33H194.593V32ZM194.025 23.7401L193.285 24.4123L193.289 24.4169L194.025 23.7401ZM191.27 23.4205L191.759 24.2924L191.763 24.2901L191.27 23.4205ZM190.453 24.2656L189.572 23.7915L189.568 23.8003L190.453 24.2656ZM189.162 25.608V32H191.162V25.608H189.162ZM190.162 31H187.591V33H190.162V31ZM188.591 32V21.0909H186.591V32H188.591ZM187.591 22.0909H190.048V20.0909H187.591V22.0909ZM189.048 21.0909V22.9446H191.048V21.0909H189.048ZM190.048 23.9446H190.176V21.9446H190.048V23.9446ZM191.101 23.3246C191.275 22.8994 191.545 22.5737 191.924 22.3251L190.828 20.6522C190.109 21.1233 189.578 21.7682 189.251 22.5646L191.101 23.3246ZM191.921 22.3272C192.278 22.0949 192.762 21.9489 193.429 21.9489V19.9489C192.466 19.9489 191.582 20.1627 190.831 20.65L191.921 22.3272ZM193.429 21.9489C194.036 21.9489 194.514 22.0775 194.897 22.2982L195.895 20.5654C195.161 20.1422 194.327 19.9489 193.429 19.9489V21.9489ZM194.9 22.3001C195.283 22.5192 195.585 22.8356 195.81 23.2809L197.596 22.381C197.205 21.6048 196.635 20.9884 195.892 20.5636L194.9 22.3001ZM195.813 23.2864C196.035 23.7213 196.169 24.2954 196.164 25.0485L198.164 25.0594C198.17 24.0701 197.996 23.1622 197.593 22.3755L195.813 23.2864ZM196.164 25.054V32H198.164V25.054H196.164ZM197.164 31H194.593V33H197.164V31ZM195.593 32V25.4517H193.593V32H195.593ZM195.593 25.4517C195.593 24.5499 195.356 23.7101 194.761 23.0632L193.289 24.4169C193.452 24.5939 193.593 24.8951 193.593 25.4517H195.593ZM194.766 23.0678C194.166 22.4073 193.356 22.1222 192.47 22.1222V24.1222C192.91 24.1222 193.137 24.249 193.285 24.4123L194.766 23.0678ZM192.47 22.1222C191.868 22.1222 191.294 22.2569 190.776 22.5508L191.763 24.2901C191.946 24.1863 192.172 24.1222 192.47 24.1222V22.1222ZM190.78 22.5486C190.259 22.841 189.856 23.2654 189.572 23.7915L191.333 24.7397C191.448 24.5272 191.589 24.3881 191.759 24.2923L190.78 22.5486ZM189.568 23.8003C189.281 24.3456 189.162 24.9614 189.162 25.608H191.162C191.162 25.2033 191.236 24.9242 191.338 24.7309L189.568 23.8003ZM206.692 31.4957L206.168 32.3472L206.17 32.3486L206.692 31.4957ZM204.895 29.5142L203.998 29.9554L204.001 29.9614L204.895 29.5142ZM204.909 23.6548L205.803 24.104L205.804 24.102L204.909 23.6548ZM206.713 21.6662L207.234 22.52L207.236 22.5191L206.713 21.6662ZM211.834 21.4389L211.402 22.3408L211.41 22.3443L211.834 21.4389ZM213.475 22.8097L212.651 23.3765L212.653 23.3796L213.475 22.8097ZM214.171 24.8693V25.8693H215.246L215.168 24.7972L214.171 24.8693ZM211.713 24.8693L210.731 25.0552L210.885 25.8693H211.713V24.8693ZM211.003 23.5554L210.31 24.2763L210.32 24.2852L211.003 23.5554ZM208.134 23.4489L208.709 24.2672L208.715 24.2626L208.134 23.4489ZM207.203 24.6562L206.283 24.2663L206.28 24.2734L207.203 24.6562ZM207.203 28.4631L206.277 28.8401L206.278 28.843L207.203 28.4631ZM208.12 29.6918L207.527 30.4976L207.538 30.5055L208.12 29.6918ZM210.534 29.9048L210.964 30.8077L210.97 30.8048L210.534 29.9048ZM211.294 29.2727L210.491 28.6772L210.491 28.6772L211.294 29.2727ZM211.713 28.2713V27.2713H210.888L210.732 28.082L211.713 28.2713ZM214.171 28.2713L215.168 28.3508L215.254 27.2713H214.171V28.2713ZM213.489 30.3239L214.322 30.877L214.324 30.874L213.489 30.3239ZM211.884 31.7159L212.324 32.6141L212.329 32.6116L211.884 31.7159ZM209.498 31.2131C208.558 31.2131 207.811 31.008 207.214 30.6428L206.17 32.3486C207.136 32.9399 208.259 33.2131 209.498 33.2131V31.2131ZM207.217 30.6443C206.604 30.2671 206.131 29.749 205.79 29.067L204.001 29.9614C204.503 30.965 205.227 31.768 206.168 32.3472L207.217 30.6443ZM205.793 29.073C205.454 28.384 205.27 27.564 205.27 26.5881H203.27C203.27 27.8186 203.503 28.9493 203.998 29.9554L205.793 29.073ZM205.27 26.5881C205.27 25.61 205.458 24.7906 205.803 24.104L204.016 23.2056C203.509 24.2142 203.27 25.3503 203.27 26.5881H205.27ZM205.804 24.102C206.15 23.4093 206.626 22.8909 207.234 22.52L206.193 20.8124C205.248 21.3884 204.521 22.1958 204.015 23.2076L205.804 24.102ZM207.236 22.5191C207.835 22.1518 208.572 21.9489 209.483 21.9489V19.9489C208.264 19.9489 207.154 20.2241 206.191 20.8133L207.236 22.5191ZM209.483 21.9489C210.245 21.9489 210.876 22.0888 211.402 22.3407L212.266 20.5371C211.428 20.1356 210.493 19.9489 209.483 19.9489V21.9489ZM211.41 22.3443C211.945 22.5952 212.35 22.9391 212.651 23.3765L214.299 22.2429C213.785 21.4965 213.097 20.9266 212.259 20.5335L211.41 22.3443ZM212.653 23.3796C212.948 23.8046 213.128 24.3152 213.173 24.9414L215.168 24.7972C215.1 23.8515 214.816 22.9889 214.297 22.2398L212.653 23.3796ZM214.171 23.8693H211.713V25.8693H214.171V23.8693ZM212.696 24.6834C212.559 23.9591 212.223 23.3276 211.687 22.8256L210.32 24.2852C210.532 24.484 210.669 24.7284 210.731 25.0552L212.696 24.6834ZM211.696 22.8346C211.103 22.2639 210.34 22.0227 209.519 22.0227V24.0227C209.938 24.0227 210.165 24.1366 210.31 24.2762L211.696 22.8346ZM209.519 22.0227C208.801 22.0227 208.133 22.2206 207.553 22.6351L208.715 24.2626C208.93 24.1089 209.185 24.0227 209.519 24.0227V22.0227ZM207.559 22.6305C206.983 23.0351 206.565 23.5989 206.283 24.2663L208.124 25.0462C208.287 24.6625 208.489 24.4214 208.709 24.2672L207.559 22.6305ZM206.28 24.2734C205.999 24.95 205.877 25.7166 205.877 26.5455H207.877C207.877 25.9065 207.972 25.4137 208.127 25.0391L206.28 24.2734ZM205.877 26.5455C205.877 27.3827 205.999 28.1564 206.277 28.8401L208.13 28.086C207.972 27.6997 207.877 27.195 207.877 26.5455H205.877ZM206.278 28.843C206.554 29.5129 206.962 30.0822 207.527 30.4975L208.712 28.886C208.491 28.7237 208.289 28.4738 208.129 28.0831L206.278 28.843ZM207.538 30.5055C208.122 30.9222 208.796 31.1179 209.519 31.1179V29.1179C209.171 29.1179 208.913 29.0295 208.701 28.878L207.538 30.5055ZM209.519 31.1179C210.025 31.1179 210.513 31.0224 210.964 30.8077L210.105 29.002C209.959 29.0713 209.771 29.1179 209.519 29.1179V31.1179ZM210.97 30.8048C211.421 30.5866 211.8 30.2705 212.098 29.8683L210.491 28.6772C210.382 28.8242 210.254 28.9295 210.099 29.0048L210.97 30.8048ZM212.098 29.8683C212.405 29.4544 212.596 28.9757 212.695 28.4606L210.732 28.082C210.679 28.3529 210.591 28.5418 210.491 28.6772L212.098 29.8683ZM211.713 29.2713H214.171V27.2713H211.713V29.2713ZM213.174 28.1918C213.125 28.81 212.947 29.3295 212.654 29.7738L214.324 30.874C214.817 30.125 215.094 29.2761 215.168 28.3508L213.174 28.1918ZM212.656 29.7707C212.366 30.2069 211.969 30.557 211.439 30.8202L212.329 32.6116C213.153 32.2025 213.826 31.6246 214.322 30.877L212.656 29.7707ZM211.444 30.8177C210.93 31.0695 210.291 31.2131 209.498 31.2131V33.2131C210.532 33.2131 211.484 33.0252 212.324 32.6141L211.444 30.8177ZM218.271 31.5099L217.756 32.3674L217.756 32.3674L218.271 31.5099ZM216.452 29.5426L215.56 29.9938L215.562 29.9978L216.452 29.5426ZM216.452 23.6264L215.561 23.1732L215.559 23.1772L216.452 23.6264ZM218.271 21.652L218.785 22.5095L218.785 22.5095L218.271 21.652ZM223.81 21.652L223.296 22.5095L223.296 22.5095L223.81 21.652ZM225.621 23.6264L224.728 24.0756L224.73 24.0796L225.621 23.6264ZM225.621 29.5426L224.731 29.0874L224.729 29.0914L225.621 29.5426ZM223.81 31.5099L223.296 30.6525L223.296 30.6525L223.81 31.5099ZM222.504 29.6776L223.136 30.452L223.142 30.4473L222.504 29.6776ZM223.37 28.3849L222.429 28.0465L222.426 28.0539L223.37 28.3849ZM223.37 24.7699L222.425 25.0984L222.429 25.1083L223.37 24.7699ZM222.504 23.4702L223.142 22.7004L223.142 22.7004L222.504 23.4702ZM219.577 23.4702L218.944 22.6966L218.939 22.7004L219.577 23.4702ZM218.704 24.7699L217.762 24.4341L217.76 24.4388L218.704 24.7699ZM218.704 28.3849L217.76 28.716L217.763 28.7234L218.704 28.3849ZM219.577 29.6776L218.939 30.4474L218.949 30.4557L219.577 29.6776ZM221.04 31.2131C220.125 31.2131 219.386 31.0132 218.785 30.6525L217.756 32.3674C218.717 32.9442 219.825 33.2131 221.04 33.2131V31.2131ZM218.785 30.6525C218.171 30.2838 217.692 29.7704 217.343 29.0874L215.562 29.9978C216.075 31.0004 216.808 31.7985 217.756 32.3674L218.785 30.6525ZM217.345 29.0914C217.002 28.413 216.813 27.5883 216.813 26.5881H214.813C214.813 27.8417 215.051 28.9866 215.56 29.9938L217.345 29.0914ZM216.813 26.5881C216.813 25.5881 217.002 24.7599 217.346 24.0756L215.559 23.1772C215.051 24.188 214.813 25.3343 214.813 26.5881H216.813ZM217.344 24.0796C217.693 23.3919 218.172 22.8772 218.785 22.5095L217.756 20.7945C216.807 21.3643 216.073 22.1659 215.561 23.1732L217.344 24.0796ZM218.785 22.5095C219.386 22.1488 220.125 21.9489 221.04 21.9489V19.9489C219.825 19.9489 218.717 20.2177 217.756 20.7945L218.785 22.5095ZM221.04 21.9489C221.956 21.9489 222.695 22.1488 223.296 22.5095L224.325 20.7945C223.364 20.2177 222.256 19.9489 221.04 19.9489V21.9489ZM223.296 22.5095C223.908 22.8766 224.383 23.39 224.728 24.0756L226.515 23.1772C226.007 22.1678 225.275 21.3648 224.325 20.7945L223.296 22.5095ZM224.73 24.0796C225.077 24.763 225.268 25.5897 225.268 26.5881H227.268C227.268 25.3327 227.027 24.1849 226.513 23.1732L224.73 24.0796ZM225.268 26.5881C225.268 27.5867 225.077 28.41 224.731 29.0874L226.512 29.9978C227.027 28.9896 227.268 27.8433 227.268 26.5881H225.268ZM224.729 29.0914C224.385 29.7723 223.909 30.2844 223.296 30.6525L224.325 32.3674C225.274 31.798 226.006 30.9985 226.514 29.9938L224.729 29.0914ZM223.296 30.6525C222.695 31.0132 221.956 31.2131 221.04 31.2131V33.2131C222.256 33.2131 223.364 32.9442 224.325 32.3674L223.296 30.6525ZM221.055 31.1534C221.826 31.1534 222.543 30.9369 223.136 30.4519L221.871 28.9032C221.688 29.0527 221.439 29.1534 221.055 29.1534V31.1534ZM223.142 30.4473C223.688 29.9946 224.072 29.4035 224.314 28.716L222.426 28.0539C222.289 28.4459 222.096 28.7166 221.865 28.9078L223.142 30.4473ZM224.311 28.7234C224.55 28.0596 224.661 27.3416 224.661 26.581H222.661C222.661 27.1461 222.579 27.6308 222.429 28.0465L224.311 28.7234ZM224.661 26.581C224.661 25.8165 224.55 25.096 224.311 24.4315L222.429 25.1083C222.578 25.5233 222.661 26.0102 222.661 26.581H224.661ZM224.315 24.4414C224.074 23.7497 223.69 23.1547 223.142 22.7004L221.865 24.2399C222.094 24.4296 222.287 24.701 222.426 25.0984L224.315 24.4414ZM223.142 22.7004C222.548 22.2083 221.83 21.9872 221.055 21.9872V23.9872C221.435 23.9872 221.682 24.0881 221.865 24.2399L223.142 22.7004ZM221.055 21.9872C220.272 21.9872 219.544 22.2047 218.944 22.6966L220.211 24.2437C220.397 24.0917 220.654 23.9872 221.055 23.9872V21.9872ZM218.939 22.7004C218.393 23.1531 218.007 23.7454 217.762 24.4341L219.646 25.1057C219.789 24.7053 219.985 24.4312 220.216 24.2399L218.939 22.7004ZM217.76 24.4388C217.528 25.1011 217.42 25.819 217.42 26.581H219.42C219.42 26.0077 219.501 25.5182 219.647 25.101L217.76 24.4388ZM217.42 26.581C217.42 27.339 217.528 28.0545 217.76 28.716L219.647 28.0539C219.501 27.6359 219.42 27.1487 219.42 26.581H217.42ZM217.763 28.7234C218.009 29.4079 218.395 29.9962 218.939 30.4473L220.216 28.9078C219.983 28.7149 219.787 28.4416 219.645 28.0465L217.763 28.7234ZM218.949 30.4557C219.55 30.9403 220.275 31.1534 221.055 31.1534V29.1534C220.65 29.1534 220.391 29.0493 220.206 28.8994L218.949 30.4557ZM228.45 32H227.45V33H228.45V32ZM228.45 21.0909V20.0909H227.45V21.0909H228.45ZM230.907 21.0909H231.907V20.0909H230.907V21.0909ZM230.907 22.9446H229.907V23.9446H230.907V22.9446ZM231.035 22.9446V23.9446H231.736L231.975 23.2863L231.035 22.9446ZM232.164 21.4815L232.719 22.3136L232.724 22.3101L232.164 21.4815ZM235.914 21.4886L235.335 22.304L235.344 22.31L235.914 21.4886ZM236.994 22.9446L236.047 23.2652L236.277 23.9446H236.994V22.9446ZM237.108 22.9446V23.9446H237.786L238.037 23.3147L237.108 22.9446ZM238.329 21.4957L238.861 22.3426L238.863 22.3414L238.329 21.4957ZM243.791 32V33H244.791V32H243.791ZM241.213 32H240.213V33H241.213V32ZM240.673 23.5909L240.012 24.3411L240.017 24.3459L240.673 23.5909ZM237.896 23.6974L237.154 23.0275L237.153 23.028L237.896 23.6974ZM237.377 32V33H238.377V32H237.377ZM234.856 32H233.856V33H234.856V32ZM234.345 23.6193L233.638 24.3264L233.643 24.3314L234.345 23.6193ZM232.015 23.3991L232.536 24.2531L232.545 24.2471L232.015 23.3991ZM231.291 24.1875L232.173 24.6594L232.175 24.6543L231.291 24.1875ZM231.021 32V33H232.021V32H231.021ZM229.45 32V21.0909H227.45V32H229.45ZM228.45 22.0909H230.907V20.0909H228.45V22.0909ZM229.907 21.0909V22.9446H231.907V21.0909H229.907ZM230.907 23.9446H231.035V21.9446H230.907V23.9446ZM231.975 23.2863C232.133 22.8504 232.381 22.5393 232.719 22.3136L231.61 20.6495C230.897 21.1246 230.391 21.7888 230.095 22.6029L231.975 23.2863ZM232.724 22.3101C233.061 22.0828 233.486 21.9489 234.047 21.9489V19.9489C233.149 19.9489 232.319 20.1701 231.605 20.6529L232.724 22.3101ZM234.047 21.9489C234.618 21.9489 235.028 22.0855 235.335 22.3039L236.493 20.6734C235.788 20.172 234.953 19.9489 234.047 19.9489V21.9489ZM235.344 22.31C235.671 22.5373 235.904 22.8432 236.047 23.2652L237.941 22.624C237.667 21.815 237.18 21.1502 236.485 20.6673L235.344 22.31ZM236.994 23.9446H237.108V21.9446H236.994V23.9446ZM238.037 23.3147C238.197 22.9133 238.461 22.5941 238.861 22.3426L237.797 20.6489C237.052 21.1171 236.502 21.7638 236.179 22.5745L238.037 23.3147ZM238.863 22.3414C239.257 22.0927 239.75 21.9489 240.382 21.9489V19.9489C239.432 19.9489 238.557 20.1696 237.795 20.6501L238.863 22.3414ZM240.382 21.9489C241.155 21.9489 241.708 22.1838 242.132 22.6077L243.546 21.1935C242.701 20.3484 241.616 19.9489 240.382 19.9489V21.9489ZM242.132 22.6077C242.52 22.9957 242.791 23.6289 242.791 24.6776H244.791C244.791 23.2925 244.427 22.0744 243.546 21.1935L242.132 22.6077ZM242.791 24.6776V32H244.791V24.6776H242.791ZM243.791 31H241.213V33H243.791V31ZM242.213 32V25.0753H240.213V32H242.213ZM242.213 25.0753C242.213 24.2343 241.987 23.4076 241.329 22.8359L240.017 24.3459C240.079 24.3992 240.213 24.5621 240.213 25.0753H242.213ZM241.334 22.8408C240.775 22.3482 240.094 22.1151 239.352 22.1151V24.1151C239.652 24.1151 239.851 24.1992 240.012 24.341L241.334 22.8408ZM239.352 22.1151C238.506 22.1151 237.729 22.3899 237.154 23.0275L238.638 24.3674C238.764 24.2285 238.957 24.1151 239.352 24.1151V22.1151ZM237.153 23.028C236.611 23.6293 236.377 24.3834 236.377 25.196H238.377C238.377 24.7776 238.489 24.5326 238.639 24.3669L237.153 23.028ZM236.377 25.196V32H238.377V25.196H236.377ZM237.377 31H234.856V33H237.377V31ZM235.856 32V24.9688H233.856V32H235.856ZM235.856 24.9688C235.856 24.1887 235.612 23.4644 235.047 22.9073L233.643 24.3314C233.759 24.4465 233.856 24.6219 233.856 24.9688H235.856ZM235.052 22.9122C234.501 22.3608 233.792 22.1151 233.024 22.1151V24.1151C233.345 24.1151 233.517 24.2054 233.638 24.3264L235.052 22.9122ZM233.024 22.1151C232.474 22.1151 231.953 22.259 231.485 22.5511L232.545 24.2471C232.684 24.1605 232.835 24.1151 233.024 24.1151V22.1151ZM231.495 22.5452C231.025 22.8318 230.663 23.2345 230.406 23.7207L232.175 24.6543C232.278 24.4587 232.4 24.3358 232.536 24.2531L231.495 22.5452ZM230.409 23.7156C230.139 24.221 230.021 24.7816 230.021 25.3665H232.021C232.021 25.0517 232.083 24.8264 232.173 24.6594L230.409 23.7156ZM230.021 25.3665V32H232.021V25.3665H230.021ZM231.021 31H228.45V33H231.021V31ZM246.399 36.0909H245.399V37.0909H246.399V36.0909ZM246.399 21.0909V20.0909H245.399V21.0909H246.399ZM248.928 21.0909H249.928V20.0909H248.928V21.0909ZM248.928 22.8949H247.928V23.8949H248.928V22.8949ZM249.077 22.8949V23.8949H249.695L249.971 23.3421L249.077 22.8949ZM249.638 22.0497L250.415 22.6789L250.42 22.6729L249.638 22.0497ZM250.618 21.2756L251.077 22.1638L251.085 22.1596L250.618 21.2756ZM254.474 21.5952L253.938 22.4389L253.944 22.4432L254.474 21.5952ZM256.094 23.4915L255.19 23.9202L255.193 23.9264L256.094 23.4915ZM256.108 29.6136L255.203 29.1891L255.203 29.1891L256.108 29.6136ZM254.503 31.5312L255.048 32.3696L255.048 32.3696L254.503 31.5312ZM250.646 31.8793L250.195 32.7716L250.195 32.7716L250.646 31.8793ZM249.652 31.1264L248.881 31.763L248.886 31.7696L248.892 31.7762L249.652 31.1264ZM249.077 30.2812L249.965 29.8214L249.685 29.2812H249.077V30.2812ZM248.97 30.2812V29.2812H247.97V30.2812H248.97ZM248.97 36.0909V37.0909H249.97V36.0909H248.97ZM249.219 28.3991L248.282 28.7503L248.285 28.7576L249.219 28.3991ZM250.092 29.642L249.474 30.4278L249.485 30.4361L250.092 29.642ZM252.912 29.6278L253.532 30.4125L253.538 30.4078L252.912 29.6278ZM253.778 28.3707L252.841 28.0223L252.839 28.027L253.778 28.3707ZM253.786 24.7415L254.724 24.395L254.724 24.395L253.786 24.7415ZM252.919 23.5057L253.533 22.7163L253.533 22.7163L252.919 23.5057ZM250.085 23.4915L250.687 24.2903L250.687 24.2903L250.085 23.4915ZM249.212 24.706L248.277 24.3493L248.275 24.3567L249.212 24.706ZM247.399 36.0909V21.0909H245.399V36.0909H247.399ZM246.399 22.0909H248.928V20.0909H246.399V22.0909ZM247.928 21.0909V22.8949H249.928V21.0909H247.928ZM248.928 23.8949H249.077V21.8949H248.928V23.8949ZM249.971 23.3421C250.064 23.1574 250.207 22.9365 250.415 22.6789L248.861 21.4205C248.586 21.7596 248.355 22.1021 248.182 22.4477L249.971 23.3421ZM250.42 22.6729C250.558 22.4994 250.766 22.3247 251.077 22.1638L250.158 20.3873C249.646 20.6526 249.2 20.9939 248.856 21.4265L250.42 22.6729ZM251.085 22.1596C251.31 22.041 251.661 21.9489 252.195 21.9489V19.9489C251.45 19.9489 250.75 20.0746 250.15 20.3915L251.085 22.1596ZM252.195 21.9489C252.857 21.9489 253.429 22.1153 253.938 22.4388L255.011 20.7515C254.166 20.2133 253.218 19.9489 252.195 19.9489V21.9489ZM253.944 22.4432C254.441 22.7533 254.862 23.2276 255.19 23.9202L256.997 23.0627C256.53 22.0793 255.872 21.2894 255.004 20.7472L253.944 22.4432ZM255.193 23.9264C255.513 24.5888 255.697 25.4534 255.697 26.5597H257.697C257.697 25.2417 257.479 24.0608 256.994 23.0566L255.193 23.9264ZM255.697 26.5597C255.697 27.6523 255.518 28.5169 255.203 29.1891L257.013 30.0382C257.484 29.0342 257.697 27.8628 257.697 26.5597H255.697ZM255.203 29.1891C254.877 29.8835 254.457 30.3684 253.958 30.6929L255.048 32.3696C255.903 31.8134 256.553 31.0199 257.013 30.0382L255.203 29.1891ZM253.958 30.6929C253.453 31.0212 252.878 31.1918 252.202 31.1918V33.1918C253.24 33.1918 254.199 32.922 255.048 32.3696L253.958 30.6929ZM252.202 31.1918C251.681 31.1918 251.329 31.104 251.098 30.9869L250.195 32.7716C250.787 33.0712 251.473 33.1918 252.202 33.1918V31.1918ZM251.098 30.9869C250.781 30.8268 250.562 30.6521 250.412 30.4766L248.892 31.7762C249.244 32.1878 249.688 32.5151 250.195 32.7716L251.098 30.9869ZM250.423 30.4899C250.21 30.2311 250.062 30.0084 249.965 29.8214L248.189 30.7411C248.366 31.0844 248.602 31.4252 248.881 31.763L250.423 30.4899ZM249.077 29.2812H248.97V31.2812H249.077V29.2812ZM247.97 30.2812V36.0909H249.97V30.2812H247.97ZM248.97 35.0909H246.399V37.0909H248.97V35.0909ZM247.92 26.5455C247.92 27.3425 248.033 28.0839 248.282 28.7503L250.155 28.048C250.007 27.6538 249.92 27.1594 249.92 26.5455H247.92ZM248.285 28.7576C248.542 29.4258 248.93 29.9995 249.474 30.4277L250.711 28.8564C250.497 28.688 250.303 28.4331 250.152 28.0407L248.285 28.7576ZM249.485 30.4361C250.065 30.8801 250.75 31.0824 251.484 31.0824V29.0824C251.13 29.0824 250.887 28.9911 250.7 28.848L249.485 30.4361ZM251.484 31.0824C252.239 31.0824 252.944 30.877 253.532 30.4125L252.292 28.8432C252.113 28.9848 251.866 29.0824 251.484 29.0824V31.0824ZM253.538 30.4078C254.084 29.9698 254.47 29.3901 254.717 28.7145L252.839 28.027C252.698 28.4119 252.507 28.6704 252.286 28.8479L253.538 30.4078ZM254.716 28.7191C254.963 28.0533 255.077 27.3237 255.077 26.5455H253.077C253.077 27.1309 252.991 27.6181 252.841 28.0223L254.716 28.7191ZM255.077 26.5455C255.077 25.7741 254.966 25.0519 254.724 24.395L252.847 25.088C252.993 25.4822 253.077 25.9627 253.077 26.5455H255.077ZM254.724 24.395C254.475 23.7218 254.085 23.1458 253.533 22.7163L252.305 24.295C252.52 24.4622 252.708 24.71 252.847 25.088L254.724 24.395ZM253.533 22.7163C252.944 22.2581 252.238 22.0582 251.484 22.0582V24.0582C251.876 24.0582 252.127 24.1567 252.305 24.295L253.533 22.7163ZM251.484 22.0582C250.751 22.0582 250.065 22.2549 249.484 22.6927L250.687 24.2903C250.873 24.1504 251.12 24.0582 251.484 24.0582V22.0582ZM249.484 22.6927C248.927 23.1119 248.532 23.6816 248.277 24.3493L250.146 25.0627C250.289 24.6887 250.476 24.4487 250.687 24.2903L249.484 22.6927ZM248.275 24.3567C248.029 25.0148 247.92 25.7514 247.92 26.5455H249.92C249.92 25.9285 250.006 25.4388 250.149 25.0552L248.275 24.3567ZM264.347 21.0909H265.347V20.0909H264.347V21.0909ZM264.347 23.0795V24.0795H265.347V23.0795H264.347ZM258.075 23.0795H257.075V24.0795H258.075V23.0795ZM258.075 21.0909V20.0909H257.075V21.0909H258.075ZM259.624 18.4773V17.4773H258.624V18.4773H259.624ZM262.195 18.4773H263.195V17.4773H262.195V18.4773ZM262.351 29.5142L261.48 30.0055L261.487 30.0189L261.495 30.032L262.351 29.5142ZM262.777 29.8835L262.423 30.8188L262.423 30.8188L262.777 29.8835ZM263.8 29.9474L263.63 28.962L263.624 28.963L263.8 29.9474ZM264.112 29.8835L265.09 29.6728L264.869 28.6469L263.855 28.9173L264.112 29.8835ZM264.545 31.8935L264.871 32.8388L265.71 32.5497L265.523 31.6828L264.545 31.8935ZM263.956 32.0497L263.739 31.0735L263.735 31.0744L263.956 32.0497ZM263.033 32.1491L263.007 31.1495L263.003 31.1496L263.033 32.1491ZM261.293 31.858L260.904 32.7793L260.911 32.7823L261.293 31.858ZM260.064 30.8494L259.228 31.3981L259.232 31.4041L260.064 30.8494ZM259.624 29.1449L260.624 29.1518V29.1449H259.624ZM263.347 21.0909V23.0795H265.347V21.0909H263.347ZM264.347 22.0795H258.075V24.0795H264.347V22.0795ZM259.075 23.0795V21.0909H257.075V23.0795H259.075ZM258.075 22.0909H264.347V20.0909H258.075V22.0909ZM259.624 19.4773H262.195V17.4773H259.624V19.4773ZM261.195 18.4773V28.7188H263.195V18.4773H261.195ZM261.195 28.7188C261.195 29.1396 261.254 29.6045 261.48 30.0055L263.222 29.0229C263.234 29.0451 263.226 29.0392 263.215 28.9841C263.204 28.9297 263.195 28.8438 263.195 28.7188H261.195ZM261.495 30.032C261.705 30.3785 262.013 30.6637 262.423 30.8188L263.131 28.9482C263.154 28.9569 263.176 28.9705 263.194 28.9858C263.211 29.0002 263.213 29.0076 263.206 28.9964L261.495 30.032ZM262.423 30.8188C262.726 30.9333 263.042 30.983 263.359 30.983V28.983C263.251 28.983 263.179 28.9663 263.131 28.9482L262.423 30.8188ZM263.359 30.983C263.568 30.983 263.775 30.9677 263.976 30.9319L263.624 28.963C263.559 28.9746 263.472 28.983 263.359 28.983V30.983ZM263.97 30.9329C264.115 30.9078 264.255 30.8805 264.37 30.8498L263.855 28.9173C263.828 28.9245 263.759 28.9398 263.63 28.962L263.97 30.9329ZM263.135 30.0942L263.568 32.1042L265.523 31.6828L265.09 29.6728L263.135 30.0942ZM264.219 30.9481C264.135 30.9771 263.982 31.0195 263.739 31.0735L264.173 33.0259C264.441 32.9663 264.681 32.9046 264.871 32.8388L264.219 30.9481ZM263.735 31.0744C263.569 31.1121 263.33 31.1411 263.007 31.1495L263.059 33.1488C263.464 33.1383 263.842 33.1009 264.177 33.025L263.735 31.0744ZM263.003 31.1496C262.479 31.165 262.042 31.0853 261.674 30.9336L260.911 32.7823C261.576 33.0567 262.299 33.1712 263.062 33.1487L263.003 31.1496ZM261.681 30.9366C261.341 30.7929 261.087 30.582 260.896 30.2947L259.232 31.4041C259.646 32.026 260.212 32.4874 260.904 32.7793L261.681 30.9366ZM260.9 30.3008C260.735 30.0487 260.62 29.6865 260.624 29.1518L258.624 29.1379C258.618 29.9669 258.797 30.7411 259.228 31.3981L260.9 30.3008ZM260.624 29.1449V18.4773H258.624V29.1449H260.624ZM268.375 31.5312L267.873 32.396L267.879 32.3995L268.375 31.5312ZM266.55 29.5852L265.658 30.0364L265.659 30.0385L266.55 29.5852ZM266.55 23.6548L265.658 23.2037L265.657 23.2056L266.55 23.6548ZM268.354 21.6662L268.877 22.5186L268.881 22.5162L268.354 21.6662ZM272.978 21.2756L272.635 22.215L272.644 22.2181L272.978 21.2756ZM274.569 22.2699L273.869 22.9843L273.873 22.9879L274.569 22.2699ZM275.662 23.9886L274.728 24.3446L274.729 24.3468L275.662 23.9886ZM276.06 27.2486V28.2486H277.06V27.2486H276.06ZM267.118 27.2486H266.118V28.2486H267.118V27.2486ZM267.118 25.5156V24.5156H266.118V25.5156H267.118ZM273.596 25.5156V26.5156H274.605L274.595 25.506L273.596 25.5156ZM273.276 24.2017L272.395 24.6745L272.397 24.679L273.276 24.2017ZM272.402 23.2855L271.886 24.142L271.891 24.1449L272.402 23.2855ZM269.725 23.3352L270.258 24.181L270.266 24.1764L269.725 23.3352ZM268.794 24.3295L267.915 23.8542L267.913 23.8579L268.794 24.3295ZM268.461 25.6719L267.461 25.6622V25.6719H268.461ZM268.809 28.8182L267.918 29.2728L267.92 29.2766L268.809 28.8182ZM269.782 29.8551L269.28 30.7203L269.288 30.7246L269.782 29.8551ZM272.26 30.054L272.585 30.9998L272.598 30.9951L272.26 30.054ZM273.049 29.5781L272.365 28.8481L273.049 29.5781ZM273.553 28.804L273.665 27.8102L272.886 27.7227L272.615 28.4576L273.553 28.804ZM275.953 29.0739L276.926 29.3061L277.189 28.2064L276.065 28.0801L275.953 29.0739ZM275.087 30.7358L274.344 30.0668L274.343 30.0672L275.087 30.7358ZM273.468 31.8295L273.83 32.7617L273.836 32.7594L273.468 31.8295ZM271.209 31.2131C270.256 31.2131 269.489 31.0159 268.871 30.663L267.879 32.3995C268.853 32.9557 269.975 33.2131 271.209 33.2131V31.2131ZM268.878 30.6665C268.258 30.3069 267.783 29.8034 267.441 29.132L265.659 30.0385C266.17 31.0432 266.911 31.837 267.873 32.396L268.878 30.6665ZM267.442 29.134C267.1 28.4573 266.911 27.626 266.911 26.6094H264.911C264.911 27.875 265.148 29.0275 265.658 30.0364L267.442 29.134ZM266.911 26.6094C266.911 25.6148 267.099 24.7889 267.443 24.104L265.657 23.2056C265.149 24.2158 264.911 25.3596 264.911 26.6094H266.911ZM267.443 24.106C267.795 23.4097 268.272 22.8897 268.877 22.5186L267.831 20.8138C266.893 21.3896 266.167 22.1955 265.658 23.2037L267.443 24.106ZM268.881 22.5162C269.472 22.1498 270.191 21.9489 271.074 21.9489V19.9489C269.874 19.9489 268.78 20.2261 267.827 20.8161L268.881 22.5162ZM271.074 21.9489C271.637 21.9489 272.154 22.0395 272.635 22.2149L273.321 20.3362C272.608 20.076 271.857 19.9489 271.074 19.9489V21.9489ZM272.644 22.2181C273.107 22.3823 273.513 22.6354 273.869 22.9843L275.268 21.5555C274.706 21.0047 274.051 20.595 273.312 20.333L272.644 22.2181ZM273.873 22.9879C274.217 23.3215 274.507 23.7645 274.728 24.3446L276.597 23.6326C276.287 22.8208 275.848 22.1179 275.265 21.5519L273.873 22.9879ZM274.729 24.3468C274.939 24.8958 275.06 25.5922 275.06 26.4602H277.06C277.06 25.4154 276.916 24.4641 276.596 23.6305L274.729 24.3468ZM275.06 26.4602V27.2486H277.06V26.4602H275.06ZM276.06 26.2486H267.118V28.2486H276.06V26.2486ZM268.118 27.2486V25.5156H266.118V27.2486H268.118ZM267.118 26.5156H273.596V24.5156H267.118V26.5156ZM274.595 25.506C274.589 24.8714 274.451 24.2691 274.155 23.7244L272.397 24.679C272.518 24.9013 272.592 25.175 272.596 25.5252L274.595 25.506ZM274.157 23.7289C273.864 23.1826 273.446 22.7427 272.914 22.4261L271.891 24.1449C272.107 24.2734 272.271 24.4442 272.395 24.6745L274.157 23.7289ZM272.918 22.429C272.372 22.0999 271.758 21.9517 271.11 21.9517V23.9517C271.447 23.9517 271.694 24.0261 271.886 24.142L272.918 22.429ZM271.11 21.9517C270.415 21.9517 269.761 22.1233 269.184 22.494L270.266 24.1764C270.484 24.0358 270.754 23.9517 271.11 23.9517V21.9517ZM269.191 22.4895C268.649 22.8317 268.219 23.2904 267.915 23.8542L269.674 24.8049C269.815 24.5448 270.005 24.3406 270.258 24.181L269.191 22.4895ZM267.913 23.8579C267.614 24.4153 267.467 25.0225 267.461 25.6622L269.461 25.6816C269.464 25.3458 269.539 25.0582 269.676 24.8012L267.913 23.8579ZM267.461 25.6719V27.1847H269.461V25.6719H267.461ZM267.461 27.1847C267.461 27.9395 267.599 28.6474 267.918 29.2728L269.699 28.3636C269.554 28.0799 269.461 27.6988 269.461 27.1847H267.461ZM267.92 29.2766C268.235 29.8871 268.69 30.378 269.28 30.7203L270.283 28.9899C270.04 28.8492 269.846 28.6489 269.697 28.3598L267.92 29.2766ZM269.288 30.7246C269.878 31.0601 270.542 31.2102 271.245 31.2102V29.2102C270.83 29.2102 270.518 29.1236 270.276 28.9857L269.288 30.7246ZM271.245 31.2102C271.711 31.2102 272.162 31.1452 272.585 30.9997L271.935 29.1083C271.753 29.171 271.526 29.2102 271.245 29.2102V31.2102ZM272.598 30.9951C273.022 30.8427 273.404 30.6148 273.732 30.3081L272.365 28.8481C272.248 28.9581 272.104 29.0475 271.922 29.1129L272.598 30.9951ZM273.732 30.3081C274.077 29.9855 274.328 29.5927 274.491 29.1504L272.615 28.4576C272.551 28.6308 272.466 28.7541 272.365 28.8481L273.732 30.3081ZM273.441 29.7977L275.842 30.0676L276.065 28.0801L273.665 27.8102L273.441 29.7977ZM274.981 28.8416C274.867 29.3177 274.655 29.7205 274.344 30.0668L275.83 31.4048C276.371 30.8041 276.737 30.099 276.926 29.3061L274.981 28.8416ZM274.343 30.0672C274.037 30.4076 273.632 30.6891 273.1 30.8997L273.836 32.7594C274.62 32.4492 275.294 32.0015 275.831 31.4043L274.343 30.0672ZM273.106 30.8974C272.583 31.1002 271.957 31.2131 271.209 31.2131V33.2131C272.156 33.2131 273.036 33.0702 273.83 32.7617L273.106 30.8974Z" fill="black" mask="url(#path-2-outside-1_151_340)"/>
</g>
<defs>
<filter id="filter0_d_151_340" x="0" y="0" width="400" height="57" filterUnits="userSpaceOnUse" color-interpolation-filters="sRGB">
<feFlood flood-opacity="0" result="BackgroundImageFix"/>
<feColorMatrix in="SourceAlpha" type="matrix" values="0 0 0 0 0 0 0 0 0 0 0 0 0 0 0 0 0 0 127 0" result="hardAlpha"/>
<feOffset dy="4"/>
<feGaussianBlur stdDeviation="2"/>
<feComposite in2="hardAlpha" operator="out"/>
<feColorMatrix type="matrix" values="0 0 0 0 0 0 0 0 0 0 0 0 0 0 0 0 0 0 0.25 0"/>
<feBlend mode="normal" in2="BackgroundImageFix" result="effect1_dropShadow_151_340"/>
<feBlend mode="normal" in="SourceGraphic" in2="effect1_dropShadow_151_340" result="shape"/>
</filter>
</defs>
</svg>
