<svg width="400" height="57" viewBox="0 0 400 57" fill="none" xmlns="http://www.w3.org/2000/svg">
<g filter="url(#filter0_d_113_412)">
<rect x="4.5" y="0.5" width="391" height="48" rx="24" fill="#14AE5C" stroke="black"/>
<mask id="path-2-outside-1_113_412" maskUnits="userSpaceOnUse" x="146.358" y="16" width="104" height="19" fill="black">
<rect fill="white" x="146.358" y="16" width="104" height="19"/>
<path d="M160.243 23.3622H157.587C157.511 22.9266 157.371 22.5407 157.168 22.2045C156.964 21.8636 156.711 21.5748 156.408 21.3381C156.105 21.1013 155.759 20.9238 155.371 20.8054C154.987 20.6823 154.573 20.6207 154.128 20.6207C153.337 20.6207 152.636 20.8196 152.026 21.2173C151.415 21.6103 150.937 22.188 150.591 22.9503C150.245 23.7079 150.072 24.6335 150.072 25.7273C150.072 26.84 150.245 27.7775 150.591 28.5398C150.941 29.2973 151.419 29.8703 152.026 30.2585C152.636 30.642 153.335 30.8338 154.121 30.8338C154.556 30.8338 154.963 30.777 155.342 30.6634C155.726 30.545 156.069 30.3722 156.372 30.1449C156.68 29.9176 156.938 29.6383 157.146 29.3068C157.359 28.9754 157.506 28.5966 157.587 28.1705L160.243 28.1847C160.143 28.8759 159.928 29.5246 159.597 30.1307C159.27 30.7367 158.841 31.2718 158.311 31.7358C157.781 32.1951 157.16 32.5549 156.45 32.8153C155.74 33.071 154.952 33.1989 154.085 33.1989C152.807 33.1989 151.666 32.9029 150.662 32.3111C149.658 31.7192 148.867 30.8646 148.29 29.7472C147.712 28.6297 147.423 27.2898 147.423 25.7273C147.423 24.16 147.714 22.8201 148.297 21.7074C148.879 20.59 149.672 19.7353 150.676 19.1435C151.68 18.5516 152.816 18.2557 154.085 18.2557C154.895 18.2557 155.648 18.3693 156.344 18.5966C157.04 18.8239 157.66 19.1577 158.205 19.598C158.749 20.0336 159.196 20.5687 159.547 21.2031C159.902 21.8329 160.134 22.5526 160.243 23.3622ZM167.301 33.2131C166.235 33.2131 165.312 32.9787 164.531 32.5099C163.75 32.0412 163.144 31.3854 162.713 30.5426C162.287 29.6998 162.073 28.715 162.073 27.5881C162.073 26.4612 162.287 25.474 162.713 24.6264C163.144 23.7789 163.75 23.1207 164.531 22.652C165.312 22.1832 166.235 21.9489 167.301 21.9489C168.366 21.9489 169.289 22.1832 170.071 22.652C170.852 23.1207 171.456 23.7789 171.882 24.6264C172.313 25.474 172.528 26.4612 172.528 27.5881C172.528 28.715 172.313 29.6998 171.882 30.5426C171.456 31.3854 170.852 32.0412 170.071 32.5099C169.289 32.9787 168.366 33.2131 167.301 33.2131ZM167.315 31.1534C167.893 31.1534 168.376 30.9948 168.764 30.6776C169.152 30.3556 169.441 29.9247 169.63 29.3849C169.824 28.8452 169.921 28.2438 169.921 27.581C169.921 26.9134 169.824 26.3097 169.63 25.7699C169.441 25.2254 169.152 24.7921 168.764 24.4702C168.376 24.1482 167.893 23.9872 167.315 23.9872C166.723 23.9872 166.231 24.1482 165.838 24.4702C165.449 24.7921 165.158 25.2254 164.964 25.7699C164.775 26.3097 164.68 26.9134 164.68 27.581C164.68 28.2438 164.775 28.8452 164.964 29.3849C165.158 29.9247 165.449 30.3556 165.838 30.6776C166.231 30.9948 166.723 31.1534 167.315 31.1534ZM177.281 26.608V33H174.71V22.0909H177.168V23.9446H177.295C177.546 23.3338 177.946 22.8485 178.496 22.4886C179.05 22.1288 179.734 21.9489 180.548 21.9489C181.301 21.9489 181.957 22.1098 182.516 22.4318C183.079 22.7538 183.515 23.2202 183.822 23.831C184.135 24.4418 184.289 25.1828 184.284 26.054V33H181.713V26.4517C181.713 25.7225 181.524 25.152 181.145 24.7401C180.771 24.3281 180.252 24.1222 179.589 24.1222C179.14 24.1222 178.74 24.2216 178.389 24.4205C178.044 24.6146 177.771 24.8963 177.572 25.2656C177.378 25.6349 177.281 26.0824 177.281 26.608ZM189.469 26.608V33H186.898V22.0909H189.355V23.9446H189.483C189.734 23.3338 190.134 22.8485 190.683 22.4886C191.237 22.1288 191.921 21.9489 192.736 21.9489C193.489 21.9489 194.144 22.1098 194.703 22.4318C195.267 22.7538 195.702 23.2202 196.01 23.831C196.322 24.4418 196.476 25.1828 196.472 26.054V33H193.901V26.4517C193.901 25.7225 193.711 25.152 193.332 24.7401C192.958 24.3281 192.44 24.1222 191.777 24.1222C191.327 24.1222 190.927 24.2216 190.577 24.4205C190.231 24.6146 189.959 24.8963 189.76 25.2656C189.566 25.6349 189.469 26.0824 189.469 26.608ZM203.915 33.2131C202.821 33.2131 201.876 32.9858 201.081 32.5312C200.29 32.072 199.682 31.4233 199.256 30.5852C198.83 29.7424 198.616 28.7505 198.616 27.6094C198.616 26.4872 198.83 25.5024 199.256 24.6548C199.687 23.8026 200.288 23.1397 201.06 22.6662C201.831 22.188 202.738 21.9489 203.78 21.9489C204.452 21.9489 205.087 22.0578 205.683 22.2756C206.285 22.4886 206.815 22.8201 207.274 23.2699C207.738 23.7197 208.103 24.2926 208.368 24.9886C208.633 25.6799 208.766 26.5038 208.766 27.4602V28.2486H199.824V26.5156H206.301C206.296 26.0232 206.19 25.5852 205.981 25.2017C205.773 24.8134 205.482 24.508 205.108 24.2855C204.739 24.063 204.308 23.9517 203.815 23.9517C203.29 23.9517 202.828 24.0795 202.43 24.3352C202.033 24.5862 201.722 24.9176 201.5 25.3295C201.282 25.7367 201.171 26.1842 201.166 26.6719V28.1847C201.166 28.8191 201.282 29.3636 201.514 29.8182C201.746 30.268 202.071 30.6136 202.487 30.8551C202.904 31.0919 203.392 31.2102 203.95 31.2102C204.324 31.2102 204.663 31.1581 204.966 31.054C205.269 30.9451 205.532 30.7865 205.754 30.5781C205.977 30.3698 206.145 30.1117 206.258 29.804L208.659 30.0739C208.508 30.7083 208.219 31.2623 207.793 31.7358C207.371 32.2045 206.831 32.5691 206.173 32.8295C205.515 33.0852 204.762 33.2131 203.915 33.2131ZM212.809 22.0909L215.01 26.1179L217.247 22.0909H219.968L216.679 27.5455L220.024 33H217.318L215.01 29.0724L212.723 33H209.996L213.32 27.5455L210.081 22.0909H212.809ZM221.956 33V22.0909H224.527V33H221.956ZM223.249 20.5426C222.842 20.5426 222.491 20.4077 222.198 20.1378C221.904 19.8632 221.757 19.5341 221.757 19.1506C221.757 18.7623 221.904 18.4332 222.198 18.1634C222.491 17.8887 222.842 17.7514 223.249 17.7514C223.661 17.7514 224.011 17.8887 224.3 18.1634C224.594 18.4332 224.74 18.7623 224.74 19.1506C224.74 19.5341 224.594 19.8632 224.3 20.1378C224.011 20.4077 223.661 20.5426 223.249 20.5426ZM231.93 33.2131C230.864 33.2131 229.941 32.9787 229.16 32.5099C228.379 32.0412 227.772 31.3854 227.342 30.5426C226.915 29.6998 226.702 28.715 226.702 27.5881C226.702 26.4612 226.915 25.474 227.342 24.6264C227.772 23.7789 228.379 23.1207 229.16 22.652C229.941 22.1832 230.864 21.9489 231.93 21.9489C232.995 21.9489 233.918 22.1832 234.7 22.652C235.481 23.1207 236.084 23.7789 236.511 24.6264C236.941 25.474 237.157 26.4612 237.157 27.5881C237.157 28.715 236.941 29.6998 236.511 30.5426C236.084 31.3854 235.481 32.0412 234.7 32.5099C233.918 32.9787 232.995 33.2131 231.93 33.2131ZM231.944 31.1534C232.521 31.1534 233.004 30.9948 233.393 30.6776C233.781 30.3556 234.07 29.9247 234.259 29.3849C234.453 28.8452 234.55 28.2438 234.55 27.581C234.55 26.9134 234.453 26.3097 234.259 25.7699C234.07 25.2254 233.781 24.7921 233.393 24.4702C233.004 24.1482 232.521 23.9872 231.944 23.9872C231.352 23.9872 230.86 24.1482 230.467 24.4702C230.078 24.7921 229.787 25.2254 229.593 25.7699C229.404 26.3097 229.309 26.9134 229.309 27.581C229.309 28.2438 229.404 28.8452 229.593 29.3849C229.787 29.9247 230.078 30.3556 230.467 30.6776C230.86 30.9948 231.352 31.1534 231.944 31.1534ZM241.91 26.608V33H239.339V22.0909H241.796V23.9446H241.924C242.175 23.3338 242.575 22.8485 243.125 22.4886C243.679 22.1288 244.363 21.9489 245.177 21.9489C245.93 21.9489 246.586 22.1098 247.144 22.4318C247.708 22.7538 248.144 23.2202 248.451 23.831C248.764 24.4418 248.918 25.1828 248.913 26.054V33H246.342V26.4517C246.342 25.7225 246.153 25.152 245.774 24.7401C245.4 24.3281 244.881 24.1222 244.218 24.1222C243.769 24.1222 243.368 24.2216 243.018 24.4205C242.672 24.6146 242.4 24.8963 242.201 25.2656C242.007 25.6349 241.91 26.0824 241.91 26.608Z"/>
</mask>
<path d="M160.243 23.3622H157.587C157.511 22.9266 157.371 22.5407 157.168 22.2045C156.964 21.8636 156.711 21.5748 156.408 21.3381C156.105 21.1013 155.759 20.9238 155.371 20.8054C154.987 20.6823 154.573 20.6207 154.128 20.6207C153.337 20.6207 152.636 20.8196 152.026 21.2173C151.415 21.6103 150.937 22.188 150.591 22.9503C150.245 23.7079 150.072 24.6335 150.072 25.7273C150.072 26.84 150.245 27.7775 150.591 28.5398C150.941 29.2973 151.419 29.8703 152.026 30.2585C152.636 30.642 153.335 30.8338 154.121 30.8338C154.556 30.8338 154.963 30.777 155.342 30.6634C155.726 30.545 156.069 30.3722 156.372 30.1449C156.68 29.9176 156.938 29.6383 157.146 29.3068C157.359 28.9754 157.506 28.5966 157.587 28.1705L160.243 28.1847C160.143 28.8759 159.928 29.5246 159.597 30.1307C159.27 30.7367 158.841 31.2718 158.311 31.7358C157.781 32.1951 157.16 32.5549 156.45 32.8153C155.74 33.071 154.952 33.1989 154.085 33.1989C152.807 33.1989 151.666 32.9029 150.662 32.3111C149.658 31.7192 148.867 30.8646 148.29 29.7472C147.712 28.6297 147.423 27.2898 147.423 25.7273C147.423 24.16 147.714 22.8201 148.297 21.7074C148.879 20.59 149.672 19.7353 150.676 19.1435C151.68 18.5516 152.816 18.2557 154.085 18.2557C154.895 18.2557 155.648 18.3693 156.344 18.5966C157.04 18.8239 157.66 19.1577 158.205 19.598C158.749 20.0336 159.196 20.5687 159.547 21.2031C159.902 21.8329 160.134 22.5526 160.243 23.3622ZM167.301 33.2131C166.235 33.2131 165.312 32.9787 164.531 32.5099C163.75 32.0412 163.144 31.3854 162.713 30.5426C162.287 29.6998 162.073 28.715 162.073 27.5881C162.073 26.4612 162.287 25.474 162.713 24.6264C163.144 23.7789 163.75 23.1207 164.531 22.652C165.312 22.1832 166.235 21.9489 167.301 21.9489C168.366 21.9489 169.289 22.1832 170.071 22.652C170.852 23.1207 171.456 23.7789 171.882 24.6264C172.313 25.474 172.528 26.4612 172.528 27.5881C172.528 28.715 172.313 29.6998 171.882 30.5426C171.456 31.3854 170.852 32.0412 170.071 32.5099C169.289 32.9787 168.366 33.2131 167.301 33.2131ZM167.315 31.1534C167.893 31.1534 168.376 30.9948 168.764 30.6776C169.152 30.3556 169.441 29.9247 169.63 29.3849C169.824 28.8452 169.921 28.2438 169.921 27.581C169.921 26.9134 169.824 26.3097 169.63 25.7699C169.441 25.2254 169.152 24.7921 168.764 24.4702C168.376 24.1482 167.893 23.9872 167.315 23.9872C166.723 23.9872 166.231 24.1482 165.838 24.4702C165.449 24.7921 165.158 25.2254 164.964 25.7699C164.775 26.3097 164.68 26.9134 164.68 27.581C164.68 28.2438 164.775 28.8452 164.964 29.3849C165.158 29.9247 165.449 30.3556 165.838 30.6776C166.231 30.9948 166.723 31.1534 167.315 31.1534ZM177.281 26.608V33H174.71V22.0909H177.168V23.9446H177.295C177.546 23.3338 177.946 22.8485 178.496 22.4886C179.05 22.1288 179.734 21.9489 180.548 21.9489C181.301 21.9489 181.957 22.1098 182.516 22.4318C183.079 22.7538 183.515 23.2202 183.822 23.831C184.135 24.4418 184.289 25.1828 184.284 26.054V33H181.713V26.4517C181.713 25.7225 181.524 25.152 181.145 24.7401C180.771 24.3281 180.252 24.1222 179.589 24.1222C179.14 24.1222 178.74 24.2216 178.389 24.4205C178.044 24.6146 177.771 24.8963 177.572 25.2656C177.378 25.6349 177.281 26.0824 177.281 26.608ZM189.469 26.608V33H186.898V22.0909H189.355V23.9446H189.483C189.734 23.3338 190.134 22.8485 190.683 22.4886C191.237 22.1288 191.921 21.9489 192.736 21.9489C193.489 21.9489 194.144 22.1098 194.703 22.4318C195.267 22.7538 195.702 23.2202 196.01 23.831C196.322 24.4418 196.476 25.1828 196.472 26.054V33H193.901V26.4517C193.901 25.7225 193.711 25.152 193.332 24.7401C192.958 24.3281 192.44 24.1222 191.777 24.1222C191.327 24.1222 190.927 24.2216 190.577 24.4205C190.231 24.6146 189.959 24.8963 189.76 25.2656C189.566 25.6349 189.469 26.0824 189.469 26.608ZM203.915 33.2131C202.821 33.2131 201.876 32.9858 201.081 32.5312C200.29 32.072 199.682 31.4233 199.256 30.5852C198.83 29.7424 198.616 28.7505 198.616 27.6094C198.616 26.4872 198.83 25.5024 199.256 24.6548C199.687 23.8026 200.288 23.1397 201.06 22.6662C201.831 22.188 202.738 21.9489 203.78 21.9489C204.452 21.9489 205.087 22.0578 205.683 22.2756C206.285 22.4886 206.815 22.8201 207.274 23.2699C207.738 23.7197 208.103 24.2926 208.368 24.9886C208.633 25.6799 208.766 26.5038 208.766 27.4602V28.2486H199.824V26.5156H206.301C206.296 26.0232 206.19 25.5852 205.981 25.2017C205.773 24.8134 205.482 24.508 205.108 24.2855C204.739 24.063 204.308 23.9517 203.815 23.9517C203.29 23.9517 202.828 24.0795 202.43 24.3352C202.033 24.5862 201.722 24.9176 201.5 25.3295C201.282 25.7367 201.171 26.1842 201.166 26.6719V28.1847C201.166 28.8191 201.282 29.3636 201.514 29.8182C201.746 30.268 202.071 30.6136 202.487 30.8551C202.904 31.0919 203.392 31.2102 203.95 31.2102C204.324 31.2102 204.663 31.1581 204.966 31.054C205.269 30.9451 205.532 30.7865 205.754 30.5781C205.977 30.3698 206.145 30.1117 206.258 29.804L208.659 30.0739C208.508 30.7083 208.219 31.2623 207.793 31.7358C207.371 32.2045 206.831 32.5691 206.173 32.8295C205.515 33.0852 204.762 33.2131 203.915 33.2131ZM212.809 22.0909L215.01 26.1179L217.247 22.0909H219.968L216.679 27.5455L220.024 33H217.318L215.01 29.0724L212.723 33H209.996L213.32 27.5455L210.081 22.0909H212.809ZM221.956 33V22.0909H224.527V33H221.956ZM223.249 20.5426C222.842 20.5426 222.491 20.4077 222.198 20.1378C221.904 19.8632 221.757 19.5341 221.757 19.1506C221.757 18.7623 221.904 18.4332 222.198 18.1634C222.491 17.8887 222.842 17.7514 223.249 17.7514C223.661 17.7514 224.011 17.8887 224.3 18.1634C224.594 18.4332 224.74 18.7623 224.74 19.1506C224.74 19.5341 224.594 19.8632 224.3 20.1378C224.011 20.4077 223.661 20.5426 223.249 20.5426ZM231.93 33.2131C230.864 33.2131 229.941 32.9787 229.16 32.5099C228.379 32.0412 227.772 31.3854 227.342 30.5426C226.915 29.6998 226.702 28.715 226.702 27.5881C226.702 26.4612 226.915 25.474 227.342 24.6264C227.772 23.7789 228.379 23.1207 229.16 22.652C229.941 22.1832 230.864 21.9489 231.93 21.9489C232.995 21.9489 233.918 22.1832 234.7 22.652C235.481 23.1207 236.084 23.7789 236.511 24.6264C236.941 25.474 237.157 26.4612 237.157 27.5881C237.157 28.715 236.941 29.6998 236.511 30.5426C236.084 31.3854 235.481 32.0412 234.7 32.5099C233.918 32.9787 232.995 33.2131 231.93 33.2131ZM231.944 31.1534C232.521 31.1534 233.004 30.9948 233.393 30.6776C233.781 30.3556 234.07 29.9247 234.259 29.3849C234.453 28.8452 234.55 28.2438 234.55 27.581C234.55 26.9134 234.453 26.3097 234.259 25.7699C234.07 25.2254 233.781 24.7921 233.393 24.4702C233.004 24.1482 232.521 23.9872 231.944 23.9872C231.352 23.9872 230.86 24.1482 230.467 24.4702C230.078 24.7921 229.787 25.2254 229.593 25.7699C229.404 26.3097 229.309 26.9134 229.309 27.581C229.309 28.2438 229.404 28.8452 229.593 29.3849C229.787 29.9247 230.078 30.3556 230.467 30.6776C230.86 30.9948 231.352 31.1534 231.944 31.1534ZM241.91 26.608V33H239.339V22.0909H241.796V23.9446H241.924C242.175 23.3338 242.575 22.8485 243.125 22.4886C243.679 22.1288 244.363 21.9489 245.177 21.9489C245.93 21.9489 246.586 22.1098 247.144 22.4318C247.708 22.7538 248.144 23.2202 248.451 23.831C248.764 24.4418 248.918 25.1828 248.913 26.054V33H246.342V26.4517C246.342 25.7225 246.153 25.152 245.774 24.7401C245.4 24.3281 244.881 24.1222 244.218 24.1222C243.769 24.1222 243.368 24.2216 243.018 24.4205C242.672 24.6146 242.4 24.8963 242.201 25.2656C242.007 25.6349 241.91 26.0824 241.91 26.608Z" fill="white"/>
<path d="M160.243 23.3622V24.3622H161.386L161.234 23.2289L160.243 23.3622ZM157.587 23.3622L156.601 23.5336L156.746 24.3622H157.587V23.3622ZM157.168 22.2045L156.309 22.7173L156.312 22.7226L157.168 22.2045ZM156.408 21.3381L157.023 20.55V20.55L156.408 21.3381ZM155.371 20.8054L155.065 21.7575L155.072 21.7598L155.079 21.7619L155.371 20.8054ZM152.026 21.2173L152.567 22.0583L152.571 22.0553L152.026 21.2173ZM150.591 22.9503L151.501 23.3654L151.502 23.3632L150.591 22.9503ZM150.591 28.5398L149.68 28.9527L149.683 28.9595L150.591 28.5398ZM152.026 30.2585L151.486 31.1006L151.494 31.1054L152.026 30.2585ZM155.342 30.6634L155.63 31.6212L155.637 31.6189L155.342 30.6634ZM156.372 30.1449L155.778 29.3404L155.772 29.3449L156.372 30.1449ZM157.146 29.3068L156.305 28.766L156.3 28.7746L157.146 29.3068ZM157.587 28.1705L157.592 27.1705L156.759 27.166L156.604 27.9848L157.587 28.1705ZM160.243 28.1847L161.233 28.327L161.396 27.1908L160.248 27.1847L160.243 28.1847ZM159.597 30.1307L158.719 29.6509L158.716 29.6562L159.597 30.1307ZM158.311 31.7358L158.966 32.4917L158.97 32.4884L158.311 31.7358ZM156.45 32.8153L156.789 33.7562L156.794 33.7542L156.45 32.8153ZM150.662 32.3111L151.17 31.4497L150.662 32.3111ZM148.29 29.7472L147.401 30.2064L148.29 29.7472ZM148.297 21.7074L149.183 22.1711L149.184 22.1696L148.297 21.7074ZM150.676 19.1435L150.168 18.2821L150.168 18.2821L150.676 19.1435ZM156.344 18.5966L156.654 17.646L156.654 17.646L156.344 18.5966ZM158.205 19.598L157.576 20.3756L157.58 20.3789L158.205 19.598ZM159.547 21.2031L158.671 21.6866L158.676 21.6943L159.547 21.2031ZM160.243 22.3622H157.587V24.3622H160.243V22.3622ZM158.572 23.1909C158.477 22.6479 158.299 22.1416 158.023 21.6865L156.312 22.7226C156.444 22.9398 156.544 23.2053 156.601 23.5336L158.572 23.1909ZM158.026 21.6918C157.761 21.2484 157.427 20.8653 157.023 20.55L155.792 22.1261C155.995 22.2844 156.167 22.4788 156.309 22.7173L158.026 21.6918ZM157.023 20.55C156.618 20.2336 156.161 20.001 155.662 19.8489L155.079 21.7619C155.356 21.8465 155.591 21.9691 155.792 22.1261L157.023 20.55ZM155.676 19.8532C155.184 19.6953 154.666 19.6207 154.128 19.6207V21.6207C154.48 21.6207 154.79 21.6693 155.065 21.7575L155.676 19.8532ZM154.128 19.6207C153.16 19.6207 152.267 19.8669 151.48 20.3793L152.571 22.0553C153.006 21.7723 153.514 21.6207 154.128 21.6207V19.6207ZM151.484 20.3764C150.688 20.8886 150.093 21.6271 149.68 22.5373L151.502 23.3632C151.78 22.7488 152.141 22.332 152.567 22.0583L151.484 20.3764ZM149.681 22.5352C149.26 23.4571 149.072 24.5332 149.072 25.7273H151.072C151.072 24.7339 151.23 23.9586 151.501 23.3654L149.681 22.5352ZM149.072 25.7273C149.072 26.9378 149.26 28.0254 149.68 28.9527L151.502 28.1268C151.231 27.5295 151.072 26.7421 151.072 25.7273H149.072ZM149.683 28.9595C150.101 29.8619 150.695 30.5939 151.486 31.1006L152.565 29.4165C152.144 29.1466 151.782 28.7328 151.498 28.12L149.683 28.9595ZM151.494 31.1054C152.278 31.5979 153.164 31.8338 154.121 31.8338V29.8338C153.505 29.8338 152.995 29.6862 152.557 29.4116L151.494 31.1054ZM154.121 31.8338C154.644 31.8338 155.149 31.7655 155.63 31.6212L155.055 29.7055C154.778 29.7885 154.469 29.8338 154.121 29.8338V31.8338ZM155.637 31.6189C156.124 31.4686 156.572 31.2452 156.972 30.9449L155.772 29.3449C155.566 29.4991 155.328 29.6213 155.047 29.7078L155.637 31.6189ZM156.966 30.9493C157.377 30.6461 157.72 30.2737 157.993 29.839L156.3 28.7746C156.156 29.0029 155.983 29.1891 155.778 29.3405L156.966 30.9493ZM157.987 29.8476C158.277 29.3975 158.467 28.8958 158.569 28.3561L156.604 27.9848C156.545 28.2974 156.442 28.5532 156.305 28.7661L157.987 29.8476ZM157.581 29.1704L160.238 29.1846L160.248 27.1847L157.592 27.1705L157.581 29.1704ZM159.253 28.0423C159.17 28.6166 158.993 29.1508 158.719 29.6509L160.474 30.6105C160.863 29.8984 161.116 29.1353 161.233 28.327L159.253 28.0423ZM158.716 29.6562C158.448 30.1546 158.095 30.596 157.653 30.9832L158.97 32.4884C159.588 31.9475 160.092 31.3189 160.477 30.6052L158.716 29.6562ZM157.656 30.9799C157.225 31.3539 156.711 31.6545 156.106 31.8765L156.794 33.7542C157.609 33.4554 158.337 33.0363 158.966 32.4917L157.656 30.9799ZM156.112 31.8745C155.525 32.0857 154.853 32.1989 154.085 32.1989V34.1989C155.05 34.1989 155.955 34.0563 156.789 33.7562L156.112 31.8745ZM154.085 32.1989C152.968 32.1989 152.005 31.9421 151.17 31.4497L150.154 33.1725C151.326 33.8637 152.646 34.1989 154.085 34.1989V32.1989ZM151.17 31.4497C150.341 30.961 149.676 30.252 149.178 29.2879L147.401 30.2064C148.058 31.4772 148.975 32.4774 150.154 33.1725L151.17 31.4497ZM149.178 29.2879C148.689 28.3427 148.423 27.1679 148.423 25.7273H146.423C146.423 27.4116 146.735 28.9167 147.401 30.2064L149.178 29.2879ZM148.423 25.7273C148.423 24.2823 148.692 23.1095 149.183 22.1711L147.411 21.2437C146.737 22.5306 146.423 24.0378 146.423 25.7273H148.423ZM149.184 22.1696C149.687 21.204 150.354 20.494 151.184 20.0049L150.168 18.2821C148.99 18.9767 148.072 19.9759 147.41 21.2452L149.184 22.1696ZM151.184 20.0049C152.02 19.5117 152.978 19.2557 154.085 19.2557V17.2557C152.654 17.2557 151.339 17.5915 150.168 18.2821L151.184 20.0049ZM154.085 19.2557C154.8 19.2557 155.448 19.3559 156.033 19.5472L156.654 17.646C155.848 17.3827 154.989 17.2557 154.085 17.2557V19.2557ZM156.033 19.5472C156.619 19.7384 157.13 20.0153 157.576 20.3756L158.833 18.8205C158.19 18.3001 157.461 17.9093 156.654 17.646L156.033 19.5472ZM157.58 20.3789C158.018 20.7295 158.382 21.1621 158.671 21.6865L160.422 20.7197C160.011 19.9752 159.48 19.3378 158.829 18.8171L157.58 20.3789ZM158.676 21.6943C158.961 22.2 159.158 22.7954 159.252 23.4955L161.234 23.2289C161.11 22.3097 160.843 21.4657 160.418 20.7119L158.676 21.6943ZM164.531 32.5099L164.016 33.3674L164.531 32.5099ZM162.713 30.5426L161.82 30.9938L161.822 30.9978L162.713 30.5426ZM162.713 24.6264L161.821 24.1732L161.819 24.1772L162.713 24.6264ZM164.531 22.652L165.045 23.5095L164.531 22.652ZM170.071 22.652L169.556 23.5095V23.5095L170.071 22.652ZM171.882 24.6264L170.988 25.0756L170.99 25.0796L171.882 24.6264ZM171.882 30.5426L170.991 30.0874L170.989 30.0914L171.882 30.5426ZM170.071 32.5099L169.556 31.6525L170.071 32.5099ZM168.764 30.6776L169.397 31.452L169.402 31.4473L168.764 30.6776ZM169.63 29.3849L168.689 29.0465L168.687 29.0539L169.63 29.3849ZM169.63 25.7699L168.686 26.0984L168.689 26.1083L169.63 25.7699ZM168.764 24.4702L169.402 23.7004V23.7004L168.764 24.4702ZM165.838 24.4702L165.204 23.6966L165.199 23.7004L165.838 24.4702ZM164.964 25.7699L164.022 25.4341L164.02 25.4388L164.964 25.7699ZM164.964 29.3849L164.02 29.716L164.023 29.7234L164.964 29.3849ZM165.838 30.6776L165.199 31.4474L165.21 31.4557L165.838 30.6776ZM167.301 32.2131C166.386 32.2131 165.647 32.0132 165.045 31.6525L164.016 33.3674C164.978 33.9442 166.085 34.2131 167.301 34.2131V32.2131ZM165.045 31.6525C164.431 31.2838 163.952 30.7704 163.603 30.0874L161.822 30.9978C162.335 32.0004 163.068 32.7985 164.016 33.3674L165.045 31.6525ZM163.605 30.0914C163.262 29.413 163.073 28.5883 163.073 27.5881H161.073C161.073 28.8417 161.311 29.9866 161.82 30.9938L163.605 30.0914ZM163.073 27.5881C163.073 26.5881 163.262 25.7599 163.606 25.0756L161.819 24.1772C161.311 25.188 161.073 26.3343 161.073 27.5881H163.073ZM163.604 25.0796C163.954 24.3919 164.432 23.8772 165.045 23.5095L164.016 21.7945C163.067 22.3643 162.333 23.1659 161.821 24.1732L163.604 25.0796ZM165.045 23.5095C165.647 23.1488 166.386 22.9489 167.301 22.9489V20.9489C166.085 20.9489 164.978 21.2177 164.016 21.7945L165.045 23.5095ZM167.301 22.9489C168.216 22.9489 168.955 23.1488 169.556 23.5095L170.585 21.7945C169.624 21.2177 168.516 20.9489 167.301 20.9489V22.9489ZM169.556 23.5095C170.168 23.8766 170.644 24.39 170.988 25.0756L172.775 24.1772C172.268 23.1678 171.536 22.3648 170.585 21.7945L169.556 23.5095ZM170.99 25.0796C171.338 25.763 171.528 26.5897 171.528 27.5881H173.528C173.528 26.3327 173.287 25.1849 172.773 24.1732L170.99 25.0796ZM171.528 27.5881C171.528 28.5867 171.338 29.41 170.991 30.0874L172.772 30.9978C173.288 29.9896 173.528 28.8433 173.528 27.5881H171.528ZM170.989 30.0914C170.645 30.7723 170.169 31.2844 169.556 31.6525L170.585 33.3674C171.534 32.798 172.266 31.9985 172.774 30.9938L170.989 30.0914ZM169.556 31.6525C168.955 32.0132 168.216 32.2131 167.301 32.2131V34.2131C168.516 34.2131 169.624 33.9442 170.585 33.3674L169.556 31.6525ZM167.315 32.1534C168.086 32.1534 168.803 31.9369 169.397 31.4519L168.131 29.9032C167.948 30.0527 167.699 30.1534 167.315 30.1534V32.1534ZM169.402 31.4473C169.948 30.9946 170.333 30.4035 170.574 29.716L168.687 29.0539C168.549 29.4459 168.356 29.7166 168.125 29.9078L169.402 31.4473ZM170.571 29.7234C170.81 29.0596 170.921 28.3416 170.921 27.581H168.921C168.921 28.1461 168.839 28.6308 168.689 29.0465L170.571 29.7234ZM170.921 27.581C170.921 26.8165 170.81 26.096 170.571 25.4315L168.689 26.1083C168.839 26.5233 168.921 27.0102 168.921 27.581H170.921ZM170.575 25.4414C170.334 24.7497 169.95 24.1547 169.402 23.7004L168.125 25.2399C168.354 25.4296 168.548 25.701 168.686 26.0984L170.575 25.4414ZM169.402 23.7004C168.809 23.2083 168.09 22.9872 167.315 22.9872V24.9872C167.695 24.9872 167.942 25.0881 168.125 25.2399L169.402 23.7004ZM167.315 22.9872C166.532 22.9872 165.804 23.2047 165.204 23.6966L166.471 25.2437C166.657 25.0917 166.914 24.9872 167.315 24.9872V22.9872ZM165.199 23.7004C164.654 24.1531 164.268 24.7454 164.022 25.4341L165.906 26.1057C166.049 25.7053 166.245 25.4312 166.476 25.2399L165.199 23.7004ZM164.02 25.4388C163.788 26.1011 163.68 26.819 163.68 27.581H165.68C165.68 27.0077 165.761 26.5182 165.908 26.101L164.02 25.4388ZM163.68 27.581C163.68 28.339 163.788 29.0545 164.02 29.716L165.908 29.0539C165.761 28.6359 165.68 28.1487 165.68 27.581H163.68ZM164.023 29.7234C164.269 30.4079 164.655 30.9962 165.199 31.4473L166.476 29.9078C166.243 29.7149 166.047 29.4416 165.905 29.0465L164.023 29.7234ZM165.21 31.4557C165.81 31.9403 166.536 32.1534 167.315 32.1534V30.1534C166.911 30.1534 166.651 30.0493 166.466 29.8994L165.21 31.4557ZM177.281 33V34H178.281V33H177.281ZM174.71 33H173.71V34H174.71V33ZM174.71 22.0909V21.0909H173.71V22.0909H174.71ZM177.168 22.0909H178.168V21.0909H177.168V22.0909ZM177.168 23.9446H176.168V24.9446H177.168V23.9446ZM177.295 23.9446V24.9446H177.966L178.22 24.3246L177.295 23.9446ZM178.496 22.4886L177.951 21.65L177.948 21.6522L178.496 22.4886ZM182.516 22.4318L182.016 23.2983L182.019 23.3001L182.516 22.4318ZM183.822 23.831L182.929 24.281L182.932 24.2864L183.822 23.831ZM184.284 26.054L183.284 26.0485V26.054H184.284ZM184.284 33V34H185.284V33H184.284ZM181.713 33H180.713V34H181.713V33ZM181.145 24.7401L180.405 25.4123L180.409 25.4169L181.145 24.7401ZM178.389 24.4205L178.879 25.2924L178.883 25.2901L178.389 24.4205ZM177.572 25.2656L176.692 24.7915L176.687 24.8003L177.572 25.2656ZM176.281 26.608V33H178.281V26.608H176.281ZM177.281 32H174.71V34H177.281V32ZM175.71 33V22.0909H173.71V33H175.71ZM174.71 23.0909H177.168V21.0909H174.71V23.0909ZM176.168 22.0909V23.9446H178.168V22.0909H176.168ZM177.168 24.9446H177.295V22.9446H177.168V24.9446ZM178.22 24.3246C178.395 23.8994 178.664 23.5737 179.044 23.3251L177.948 21.6522C177.229 22.1233 176.698 22.7682 176.37 23.5646L178.22 24.3246ZM179.04 23.3272C179.398 23.0949 179.882 22.9489 180.548 22.9489V20.9489C179.586 20.9489 178.701 21.1627 177.951 21.65L179.04 23.3272ZM180.548 22.9489C181.155 22.9489 181.633 23.0775 182.016 23.2982L183.015 21.5654C182.281 21.1422 181.447 20.9489 180.548 20.9489V22.9489ZM182.019 23.3001C182.403 23.5192 182.705 23.8356 182.929 24.2809L184.715 23.381C184.324 22.6048 183.755 21.9884 183.012 21.5636L182.019 23.3001ZM182.932 24.2864C183.155 24.7213 183.288 25.2954 183.284 26.0485L185.284 26.0594C185.289 25.0701 185.115 24.1622 184.713 23.3755L182.932 24.2864ZM183.284 26.054V33H185.284V26.054H183.284ZM184.284 32H181.713V34H184.284V32ZM182.713 33V26.4517H180.713V33H182.713ZM182.713 26.4517C182.713 25.5499 182.476 24.7101 181.881 24.0632L180.409 25.4169C180.571 25.5939 180.713 25.8951 180.713 26.4517H182.713ZM181.885 24.0678C181.285 23.4073 180.475 23.1222 179.589 23.1222V25.1222C180.029 25.1222 180.256 25.249 180.405 25.4123L181.885 24.0678ZM179.589 23.1222C178.987 23.1222 178.413 23.2569 177.896 23.5508L178.883 25.2901C179.066 25.1863 179.292 25.1222 179.589 25.1222V23.1222ZM177.899 23.5486C177.379 23.841 176.975 24.2654 176.692 24.7915L178.453 25.7397C178.567 25.5272 178.708 25.3881 178.879 25.2923L177.899 23.5486ZM176.687 24.8003C176.401 25.3456 176.281 25.9614 176.281 26.608H178.281C178.281 26.2033 178.356 25.9242 178.458 25.7309L176.687 24.8003ZM189.469 33V34H190.469V33H189.469ZM186.898 33H185.898V34H186.898V33ZM186.898 22.0909V21.0909H185.898V22.0909H186.898ZM189.355 22.0909H190.355V21.0909H189.355V22.0909ZM189.355 23.9446H188.355V24.9446H189.355V23.9446ZM189.483 23.9446V24.9446H190.153L190.408 24.3246L189.483 23.9446ZM190.683 22.4886L190.138 21.65L190.135 21.6522L190.683 22.4886ZM194.703 22.4318L194.204 23.2983L194.207 23.3001L194.703 22.4318ZM196.01 23.831L195.117 24.281L195.12 24.2864L196.01 23.831ZM196.472 26.054L195.472 26.0485V26.054H196.472ZM196.472 33V34H197.472V33H196.472ZM193.901 33H192.901V34H193.901V33ZM193.332 24.7401L192.592 25.4123L192.596 25.4169L193.332 24.7401ZM190.577 24.4205L191.066 25.2924L191.07 25.2901L190.577 24.4205ZM189.76 25.2656L188.879 24.7915L188.875 24.8003L189.76 25.2656ZM188.469 26.608V33H190.469V26.608H188.469ZM189.469 32H186.898V34H189.469V32ZM187.898 33V22.0909H185.898V33H187.898ZM186.898 23.0909H189.355V21.0909H186.898V23.0909ZM188.355 22.0909V23.9446H190.355V22.0909H188.355ZM189.355 24.9446H189.483V22.9446H189.355V24.9446ZM190.408 24.3246C190.583 23.8994 190.852 23.5737 191.231 23.3251L190.135 21.6522C189.416 22.1233 188.885 22.7682 188.558 23.5646L190.408 24.3246ZM191.228 23.3272C191.586 23.0949 192.07 22.9489 192.736 22.9489V20.9489C191.773 20.9489 190.889 21.1627 190.138 21.65L191.228 23.3272ZM192.736 22.9489C193.343 22.9489 193.821 23.0775 194.204 23.2982L195.202 21.5654C194.468 21.1422 193.634 20.9489 192.736 20.9489V22.9489ZM194.207 23.3001C194.59 23.5192 194.892 23.8356 195.117 24.2809L196.903 23.381C196.512 22.6048 195.943 21.9884 195.199 21.5636L194.207 23.3001ZM195.12 24.2864C195.342 24.7213 195.476 25.2954 195.472 26.0485L197.472 26.0594C197.477 25.0701 197.303 24.1622 196.9 23.3755L195.12 24.2864ZM195.472 26.054V33H197.472V26.054H195.472ZM196.472 32H193.901V34H196.472V32ZM194.901 33V26.4517H192.901V33H194.901ZM194.901 26.4517C194.901 25.5499 194.663 24.7101 194.068 24.0632L192.596 25.4169C192.759 25.5939 192.901 25.8951 192.901 26.4517H194.901ZM194.073 24.0678C193.473 23.4073 192.663 23.1222 191.777 23.1222V25.1222C192.217 25.1222 192.444 25.249 192.592 25.4123L194.073 24.0678ZM191.777 23.1222C191.175 23.1222 190.601 23.2569 190.083 23.5508L191.07 25.2901C191.253 25.1863 191.48 25.1222 191.777 25.1222V23.1222ZM190.087 23.5486C189.566 23.841 189.163 24.2654 188.879 24.7915L190.64 25.7397C190.755 25.5272 190.896 25.3881 191.066 25.2923L190.087 23.5486ZM188.875 24.8003C188.588 25.3456 188.469 25.9614 188.469 26.608H190.469C190.469 26.2033 190.543 25.9242 190.645 25.7309L188.875 24.8003ZM201.081 32.5312L200.579 33.396L200.585 33.3995L201.081 32.5312ZM199.256 30.5852L198.363 31.0364L198.364 31.0385L199.256 30.5852ZM199.256 24.6548L198.363 24.2037L198.362 24.2056L199.256 24.6548ZM201.06 22.6662L201.583 23.5186L201.586 23.5162L201.06 22.6662ZM205.683 22.2756L205.34 23.215L205.349 23.2181L205.683 22.2756ZM207.274 23.2699L206.574 23.9843L206.578 23.9879L207.274 23.2699ZM208.368 24.9886L207.433 25.3446L207.434 25.3468L208.368 24.9886ZM208.766 28.2486V29.2486H209.766V28.2486H208.766ZM199.824 28.2486H198.824V29.2486H199.824V28.2486ZM199.824 26.5156V25.5156H198.824V26.5156H199.824ZM206.301 26.5156V27.5156H207.311L207.301 26.506L206.301 26.5156ZM205.981 25.2017L205.1 25.6745L205.103 25.679L205.981 25.2017ZM205.108 24.2855L204.592 25.142L204.597 25.1449L205.108 24.2855ZM202.43 24.3352L202.964 25.181L202.971 25.1764L202.43 24.3352ZM201.5 25.3295L200.62 24.8542L200.618 24.8579L201.5 25.3295ZM201.166 26.6719L200.166 26.6622V26.6719H201.166ZM201.514 29.8182L200.623 30.2728L200.625 30.2766L201.514 29.8182ZM202.487 30.8551L201.986 31.7203L201.993 31.7246L202.487 30.8551ZM204.966 31.054L205.291 31.9998L205.304 31.9951L204.966 31.054ZM205.754 30.5781L205.071 29.8481L205.754 30.5781ZM206.258 29.804L206.37 28.8102L205.592 28.7227L205.32 29.4576L206.258 29.804ZM208.659 30.0739L209.632 30.3061L209.894 29.2064L208.771 29.0801L208.659 30.0739ZM207.793 31.7358L207.049 31.0668L207.049 31.0672L207.793 31.7358ZM206.173 32.8295L206.535 33.7617L206.541 33.7594L206.173 32.8295ZM203.915 32.2131C202.961 32.2131 202.195 32.0159 201.577 31.663L200.585 33.3995C201.558 33.9557 202.681 34.2131 203.915 34.2131V32.2131ZM201.583 31.6665C200.964 31.3069 200.488 30.8034 200.147 30.132L198.364 31.0385C198.875 32.0432 199.616 32.837 200.579 33.396L201.583 31.6665ZM200.148 30.134C199.806 29.4573 199.616 28.626 199.616 27.6094H197.616C197.616 28.875 197.853 30.0275 198.363 31.0364L200.148 30.134ZM199.616 27.6094C199.616 26.6148 199.805 25.7889 200.149 25.104L198.362 24.2056C197.854 25.2158 197.616 26.3596 197.616 27.6094H199.616ZM200.148 25.106C200.5 24.4097 200.978 23.8897 201.583 23.5186L200.537 21.8138C199.598 22.3896 198.873 23.1955 198.363 24.2037L200.148 25.106ZM201.586 23.5162C202.178 23.1498 202.896 22.9489 203.78 22.9489V20.9489C202.58 20.9489 201.485 21.2261 200.533 21.8161L201.586 23.5162ZM203.78 22.9489C204.342 22.9489 204.86 23.0395 205.34 23.2149L206.026 21.3362C205.313 21.076 204.562 20.9489 203.78 20.9489V22.9489ZM205.349 23.2181C205.812 23.3823 206.218 23.6354 206.574 23.9843L207.974 22.5555C207.411 22.0047 206.757 21.595 206.017 21.333L205.349 23.2181ZM206.578 23.9879C206.922 24.3215 207.212 24.7645 207.433 25.3446L209.302 24.6326C208.993 23.8208 208.554 23.1179 207.97 22.5519L206.578 23.9879ZM207.434 25.3468C207.645 25.8958 207.766 26.5922 207.766 27.4602H209.766C209.766 26.4154 209.621 25.4641 209.302 24.6305L207.434 25.3468ZM207.766 27.4602V28.2486H209.766V27.4602H207.766ZM208.766 27.2486H199.824V29.2486H208.766V27.2486ZM200.824 28.2486V26.5156H198.824V28.2486H200.824ZM199.824 27.5156H206.301V25.5156H199.824V27.5156ZM207.301 26.506C207.295 25.8714 207.156 25.2691 206.86 24.7244L205.103 25.679C205.224 25.9013 205.298 26.175 205.301 26.5252L207.301 26.506ZM206.863 24.7289C206.57 24.1826 206.151 23.7427 205.619 23.4261L204.597 25.1449C204.813 25.2734 204.977 25.4442 205.1 25.6745L206.863 24.7289ZM205.624 23.429C205.078 23.0999 204.463 22.9517 203.815 22.9517V24.9517C204.152 24.9517 204.399 25.0261 204.592 25.142L205.624 23.429ZM203.815 22.9517C203.12 22.9517 202.466 23.1233 201.89 23.494L202.971 25.1764C203.19 25.0358 203.459 24.9517 203.815 24.9517V22.9517ZM201.897 23.4895C201.354 23.8317 200.925 24.2904 200.62 24.8542L202.38 25.8049C202.52 25.5448 202.711 25.3406 202.964 25.181L201.897 23.4895ZM200.618 24.8579C200.32 25.4153 200.172 26.0225 200.166 26.6622L202.166 26.6816C202.169 26.3458 202.244 26.0582 202.382 25.8012L200.618 24.8579ZM200.166 26.6719V28.1847H202.166V26.6719H200.166ZM200.166 28.1847C200.166 28.9395 200.304 29.6474 200.623 30.2728L202.405 29.3636C202.26 29.0799 202.166 28.6988 202.166 28.1847H200.166ZM200.625 30.2766C200.94 30.8871 201.395 31.378 201.986 31.7203L202.989 29.9899C202.746 29.8492 202.552 29.6489 202.403 29.3598L200.625 30.2766ZM201.993 31.7246C202.584 32.0601 203.247 32.2102 203.95 32.2102V30.2102C203.536 30.2102 203.224 30.1236 202.981 29.9857L201.993 31.7246ZM203.95 32.2102C204.417 32.2102 204.867 32.1452 205.291 31.9997L204.641 30.1083C204.458 30.171 204.232 30.2102 203.95 30.2102V32.2102ZM205.304 31.9951C205.728 31.8427 206.11 31.6148 206.438 31.3081L205.071 29.8481C204.953 29.9581 204.81 30.0475 204.628 30.1129L205.304 31.9951ZM206.438 31.3081C206.782 30.9855 207.033 30.5927 207.197 30.1504L205.32 29.4576C205.256 29.6308 205.171 29.7541 205.071 29.8481L206.438 31.3081ZM206.147 30.7977L208.547 31.0676L208.771 29.0801L206.37 28.8102L206.147 30.7977ZM207.686 29.8416C207.573 30.3177 207.361 30.7205 207.049 31.0668L208.536 32.4048C209.076 31.8041 209.442 31.099 209.632 30.3061L207.686 29.8416ZM207.049 31.0672C206.743 31.4076 206.338 31.6891 205.805 31.8997L206.541 33.7594C207.325 33.4492 207.999 33.0015 208.536 32.4043L207.049 31.0672ZM205.811 31.8974C205.289 32.1002 204.663 32.2131 203.915 32.2131V34.2131C204.862 34.2131 205.741 34.0702 206.535 33.7617L205.811 31.8974ZM212.809 22.0909L213.686 21.6112L213.402 21.0909H212.809V22.0909ZM215.01 26.1179L214.133 26.5976L215.003 28.1896L215.884 26.6035L215.01 26.1179ZM217.247 22.0909V21.0909H216.659L216.373 21.6053L217.247 22.0909ZM219.968 22.0909L220.824 22.6072L221.738 21.0909H219.968V22.0909ZM216.679 27.5455L215.823 27.0292L215.509 27.5499L215.827 28.0683L216.679 27.5455ZM220.024 33V34H221.811L220.877 32.4772L220.024 33ZM217.318 33L216.456 33.5067L216.746 34H217.318V33ZM215.01 29.0724L215.872 28.5658L215.006 27.092L214.146 28.5693L215.01 29.0724ZM212.723 33V34H213.298L213.588 33.5032L212.723 33ZM209.996 33L209.142 32.4796L208.216 34H209.996V33ZM213.32 27.5455L214.174 28.0658L214.487 27.5521L214.18 27.0349L213.32 27.5455ZM210.081 22.0909V21.0909H208.325L209.221 22.6014L210.081 22.0909ZM211.931 22.5706L214.133 26.5976L215.888 25.6382L213.686 21.6112L211.931 22.5706ZM215.884 26.6035L218.122 22.5766L216.373 21.6053L214.136 25.6323L215.884 26.6035ZM217.247 23.0909H219.968V21.0909H217.247V23.0909ZM219.111 21.5746L215.823 27.0292L217.536 28.0618L220.824 22.6072L219.111 21.5746ZM215.827 28.0683L219.172 33.5228L220.877 32.4772L217.532 27.0227L215.827 28.0683ZM220.024 32H217.318V34H220.024V32ZM218.181 32.4933L215.872 28.5658L214.148 29.5791L216.456 33.5067L218.181 32.4933ZM214.146 28.5693L211.859 32.4968L213.588 33.5032L215.874 29.5756L214.146 28.5693ZM212.723 32H209.996V34H212.723V32ZM210.85 33.5204L214.174 28.0658L212.466 27.0251L209.142 32.4796L210.85 33.5204ZM214.18 27.0349L210.941 21.5804L209.221 22.6014L212.46 28.056L214.18 27.0349ZM210.081 23.0909H212.809V21.0909H210.081V23.0909ZM221.956 33H220.956V34H221.956V33ZM221.956 22.0909V21.0909H220.956V22.0909H221.956ZM224.527 22.0909H225.527V21.0909H224.527V22.0909ZM224.527 33V34H225.527V33H224.527ZM222.198 20.1378L221.515 20.8681L221.521 20.874L222.198 20.1378ZM222.198 18.1634L222.875 18.8995L222.881 18.8936L222.198 18.1634ZM224.3 18.1634L223.611 18.8881L223.617 18.8938L223.623 18.8995L224.3 18.1634ZM224.3 20.1378L224.983 20.8684L224.983 20.8681L224.3 20.1378ZM222.956 33V22.0909H220.956V33H222.956ZM221.956 23.0909H224.527V21.0909H221.956V23.0909ZM223.527 22.0909V33H225.527V22.0909H223.527ZM224.527 32H221.956V34H224.527V32ZM223.249 19.5426C223.087 19.5426 222.979 19.4979 222.875 19.4016L221.521 20.874C222.003 21.3174 222.597 21.5426 223.249 21.5426V19.5426ZM222.881 19.4075C222.779 19.3117 222.757 19.2427 222.757 19.1506H220.757C220.757 19.8255 221.03 20.4146 221.515 20.8681L222.881 19.4075ZM222.757 19.1506C222.757 19.0506 222.781 18.9859 222.875 18.8995L221.521 17.4272C221.028 17.8806 220.757 18.474 220.757 19.1506H222.757ZM222.881 18.8936C222.987 18.7948 223.092 18.7514 223.249 18.7514V16.7514C222.592 16.7514 221.996 16.9827 221.515 17.4331L222.881 18.8936ZM223.249 18.7514C223.414 18.7514 223.515 18.7966 223.611 18.8881L224.989 17.4386C224.508 16.9808 223.908 16.7514 223.249 16.7514V18.7514ZM223.623 18.8995C223.717 18.9859 223.74 19.0506 223.74 19.1506H225.74C225.74 18.474 225.47 17.8806 224.977 17.4272L223.623 18.8995ZM223.74 19.1506C223.74 19.2427 223.719 19.3117 223.617 19.4075L224.983 20.8681C225.468 20.4146 225.74 19.8255 225.74 19.1506H223.74ZM223.617 19.4071C223.522 19.4961 223.419 19.5426 223.249 19.5426V21.5426C223.903 21.5426 224.5 21.3193 224.983 20.8684L223.617 19.4071ZM229.16 32.5099L228.645 33.3674L229.16 32.5099ZM227.342 30.5426L226.449 30.9938L226.451 30.9978L227.342 30.5426ZM227.342 24.6264L226.45 24.1732L226.448 24.1772L227.342 24.6264ZM229.16 22.652L229.674 23.5095L229.16 22.652ZM234.7 22.652L234.185 23.5095V23.5095L234.7 22.652ZM236.511 24.6264L235.617 25.0756L235.619 25.0796L236.511 24.6264ZM236.511 30.5426L235.62 30.0874L235.618 30.0914L236.511 30.5426ZM234.7 32.5099L234.185 31.6525L234.7 32.5099ZM233.393 30.6776L234.025 31.452L234.031 31.4473L233.393 30.6776ZM234.259 29.3849L233.318 29.0465L233.316 29.0539L234.259 29.3849ZM234.259 25.7699L233.315 26.0984L233.318 26.1083L234.259 25.7699ZM233.393 24.4702L234.031 23.7004V23.7004L233.393 24.4702ZM230.467 24.4702L229.833 23.6966L229.828 23.7004L230.467 24.4702ZM229.593 25.7699L228.651 25.4341L228.649 25.4388L229.593 25.7699ZM229.593 29.3849L228.649 29.716L228.652 29.7234L229.593 29.3849ZM230.467 30.6776L229.828 31.4474L229.838 31.4557L230.467 30.6776ZM231.93 32.2131C231.014 32.2131 230.275 32.0132 229.674 31.6525L228.645 33.3674C229.607 33.9442 230.714 34.2131 231.93 34.2131V32.2131ZM229.674 31.6525C229.06 31.2838 228.581 30.7704 228.232 30.0874L226.451 30.9978C226.964 32.0004 227.697 32.7985 228.645 33.3674L229.674 31.6525ZM228.234 30.0914C227.891 29.413 227.702 28.5883 227.702 27.5881H225.702C225.702 28.8417 225.94 29.9866 226.449 30.9938L228.234 30.0914ZM227.702 27.5881C227.702 26.5881 227.891 25.7599 228.235 25.0756L226.448 24.1772C225.94 25.188 225.702 26.3343 225.702 27.5881H227.702ZM228.233 25.0796C228.583 24.3919 229.061 23.8772 229.674 23.5095L228.645 21.7945C227.696 22.3643 226.962 23.1659 226.45 24.1732L228.233 25.0796ZM229.674 23.5095C230.275 23.1488 231.014 22.9489 231.93 22.9489V20.9489C230.714 20.9489 229.607 21.2177 228.645 21.7945L229.674 23.5095ZM231.93 22.9489C232.845 22.9489 233.584 23.1488 234.185 23.5095L235.214 21.7945C234.253 21.2177 233.145 20.9489 231.93 20.9489V22.9489ZM234.185 23.5095C234.797 23.8766 235.272 24.39 235.617 25.0756L237.404 24.1772C236.896 23.1678 236.165 22.3648 235.214 21.7945L234.185 23.5095ZM235.619 25.0796C235.967 25.763 236.157 26.5897 236.157 27.5881H238.157C238.157 26.3327 237.916 25.1849 237.402 24.1732L235.619 25.0796ZM236.157 27.5881C236.157 28.5867 235.967 29.41 235.62 30.0874L237.401 30.9978C237.916 29.9896 238.157 28.8433 238.157 27.5881H236.157ZM235.618 30.0914C235.274 30.7723 234.798 31.2844 234.185 31.6525L235.214 33.3674C236.163 32.798 236.895 31.9985 237.403 30.9938L235.618 30.0914ZM234.185 31.6525C233.584 32.0132 232.845 32.2131 231.93 32.2131V34.2131C233.145 34.2131 234.253 33.9442 235.214 33.3674L234.185 31.6525ZM231.944 32.1534C232.715 32.1534 233.432 31.9369 234.025 31.4519L232.76 29.9032C232.577 30.0527 232.328 30.1534 231.944 30.1534V32.1534ZM234.031 31.4473C234.577 30.9946 234.962 30.4035 235.203 29.716L233.316 29.0539C233.178 29.4459 232.985 29.7166 232.754 29.9078L234.031 31.4473ZM235.2 29.7234C235.439 29.0596 235.55 28.3416 235.55 27.581H233.55C233.55 28.1461 233.468 28.6308 233.318 29.0465L235.2 29.7234ZM235.55 27.581C235.55 26.8165 235.439 26.096 235.2 25.4315L233.318 26.1083C233.467 26.5233 233.55 27.0102 233.55 27.581H235.55ZM235.204 25.4414C234.963 24.7497 234.579 24.1547 234.031 23.7004L232.754 25.2399C232.983 25.4296 233.176 25.701 233.315 26.0984L235.204 25.4414ZM234.031 23.7004C233.438 23.2083 232.719 22.9872 231.944 22.9872V24.9872C232.324 24.9872 232.571 25.0881 232.754 25.2399L234.031 23.7004ZM231.944 22.9872C231.161 22.9872 230.433 23.2047 229.833 23.6966L231.1 25.2437C231.286 25.0917 231.543 24.9872 231.944 24.9872V22.9872ZM229.828 23.7004C229.282 24.1531 228.897 24.7454 228.651 25.4341L230.535 26.1057C230.678 25.7053 230.874 25.4312 231.105 25.2399L229.828 23.7004ZM228.649 25.4388C228.417 26.1011 228.309 26.819 228.309 27.581H230.309C230.309 27.0077 230.39 26.5182 230.537 26.101L228.649 25.4388ZM228.309 27.581C228.309 28.339 228.417 29.0545 228.649 29.716L230.537 29.0539C230.39 28.6359 230.309 28.1487 230.309 27.581H228.309ZM228.652 29.7234C228.898 30.4079 229.284 30.9962 229.828 31.4473L231.105 29.9078C230.872 29.7149 230.676 29.4416 230.534 29.0465L228.652 29.7234ZM229.838 31.4557C230.439 31.9403 231.164 32.1534 231.944 32.1534V30.1534C231.539 30.1534 231.28 30.0493 231.095 29.8994L229.838 31.4557ZM241.91 33V34H242.91V33H241.91ZM239.339 33H238.339V34H239.339V33ZM239.339 22.0909V21.0909H238.339V22.0909H239.339ZM241.796 22.0909H242.796V21.0909H241.796V22.0909ZM241.796 23.9446H240.796V24.9446H241.796V23.9446ZM241.924 23.9446V24.9446H242.595L242.849 24.3246L241.924 23.9446ZM243.125 22.4886L242.58 21.65L242.577 21.6522L243.125 22.4886ZM247.144 22.4318L246.645 23.2983L246.648 23.3001L247.144 22.4318ZM248.451 23.831L247.558 24.281L247.561 24.2864L248.451 23.831ZM248.913 26.054L247.913 26.0485V26.054H248.913ZM248.913 33V34H249.913V33H248.913ZM246.342 33H245.342V34H246.342V33ZM245.774 24.7401L245.033 25.4123L245.038 25.4169L245.774 24.7401ZM243.018 24.4205L243.508 25.2924L243.512 25.2901L243.018 24.4205ZM242.201 25.2656L241.321 24.7915L241.316 24.8003L242.201 25.2656ZM240.91 26.608V33H242.91V26.608H240.91ZM241.91 32H239.339V34H241.91V32ZM240.339 33V22.0909H238.339V33H240.339ZM239.339 23.0909H241.796V21.0909H239.339V23.0909ZM240.796 22.0909V23.9446H242.796V22.0909H240.796ZM241.796 24.9446H241.924V22.9446H241.796V24.9446ZM242.849 24.3246C243.024 23.8994 243.293 23.5737 243.673 23.3251L242.577 21.6522C241.857 22.1233 241.327 22.7682 240.999 23.5646L242.849 24.3246ZM243.669 23.3272C244.027 23.0949 244.511 22.9489 245.177 22.9489V20.9489C244.215 20.9489 243.33 21.1627 242.58 21.65L243.669 23.3272ZM245.177 22.9489C245.784 22.9489 246.262 23.0775 246.645 23.2982L247.644 21.5654C246.909 21.1422 246.076 20.9489 245.177 20.9489V22.9489ZM246.648 23.3001C247.032 23.5192 247.334 23.8356 247.558 24.2809L249.344 23.381C248.953 22.6048 248.384 21.9884 247.641 21.5636L246.648 23.3001ZM247.561 24.2864C247.784 24.7213 247.917 25.2954 247.913 26.0485L249.913 26.0594C249.918 25.0701 249.744 24.1622 249.342 23.3755L247.561 24.2864ZM247.913 26.054V33H249.913V26.054H247.913ZM248.913 32H246.342V34H248.913V32ZM247.342 33V26.4517H245.342V33H247.342ZM247.342 26.4517C247.342 25.5499 247.105 24.7101 246.51 24.0632L245.038 25.4169C245.2 25.5939 245.342 25.8951 245.342 26.4517H247.342ZM246.514 24.0678C245.914 23.4073 245.104 23.1222 244.218 23.1222V25.1222C244.658 25.1222 244.885 25.249 245.033 25.4123L246.514 24.0678ZM244.218 23.1222C243.616 23.1222 243.042 23.2569 242.524 23.5508L243.512 25.2901C243.695 25.1863 243.921 25.1222 244.218 25.1222V23.1222ZM242.528 23.5486C242.008 23.841 241.604 24.2654 241.321 24.7915L243.082 25.7397C243.196 25.5272 243.337 25.3881 243.508 25.2923L242.528 23.5486ZM241.316 24.8003C241.03 25.3456 240.91 25.9614 240.91 26.608H242.91C242.91 26.2033 242.985 25.9242 243.086 25.7309L241.316 24.8003Z" fill="black" mask="url(#path-2-outside-1_113_412)"/>
</g>
<defs>
<filter id="filter0_d_113_412" x="0" y="0" width="400" height="57" filterUnits="userSpaceOnUse" color-interpolation-filters="sRGB">
<feFlood flood-opacity="0" result="BackgroundImageFix"/>
<feColorMatrix in="SourceAlpha" type="matrix" values="0 0 0 0 0 0 0 0 0 0 0 0 0 0 0 0 0 0 127 0" result="hardAlpha"/>
<feOffset dy="4"/>
<feGaussianBlur stdDeviation="2"/>
<feComposite in2="hardAlpha" operator="out"/>
<feColorMatrix type="matrix" values="0 0 0 0 0 0 0 0 0 0 0 0 0 0 0 0 0 0 0.25 0"/>
<feBlend mode="normal" in2="BackgroundImageFix" result="effect1_dropShadow_113_412"/>
<feBlend mode="normal" in="SourceGraphic" in2="effect1_dropShadow_113_412" result="shape"/>
</filter>
</defs>
</svg>
